<?xml version="1.0" encoding="UTF-8"?><svg id="Layer_2" xmlns="http://www.w3.org/2000/svg" width="1417.32" height="349.96" viewBox="0 0 1417.32 349.96"><defs><style>.cls-1{fill:#fa481c;}</style></defs><g id="Ebene_1_Kopie"><path class="cls-1" d="M207.01,58.82c79.77.22,177.95,21.81,177.95,101.27v189.87h-140.72v-81.91c-.08-.25-34.15,12.07-60.32,20.12-17.61,4.85-30.95,14.79-32.01,32.75-1.37,15.13,15.8,29.03,15.64,29.04H29.8c-.17-.01-30.72-11.02-29.77-43.95,2.84-62.75,51.71-85.84,172-99.75,64.81-8,72.14-14.25,72.22-30.53-.08-13.36-7.97-28.49-44.67-29.05-52.91.02-49.21,35.83-49.15,35.74H15.65c-.28-.05,1.3-123.46,191.36-123.6M636.83,61.8c-46.79,6.85-63.22,45.52-63.28,45.42v-40.21h-131.05v282.95h142.96v-135.53c.17-23.93,6.87-34.67,15.64-43.18,9.87-10.14,27.18-17.24,46.17-17.12h40.2v-87.12c-.03-.12-20.64-9.59-50.63-5.21M922.01,0h-141.46v67.01h-58.83v87.12h58.83v115.41c.12,24.89-.41,45.2,17.86,64.75,15.98,16.35,36.92,15.58,61.81,15.67h61.79v-195.83h84.89v-87.12h-84.89V0ZM1216.17,61.06c237.28,2.61,198.91,217.12,198.79,217.42h-253.16v71.48h-103.5c.32-.01-42.47-38.5-41.68-114.66,1.53-177.46,192.08-174.39,199.55-174.23M1277.95,206.99c-.15-.24,5.93-57.98-61.78-58.07-65.28-.34-58.12,57.82-58.09,58.07h119.87"/></g></svg>