<?xml version="1.0" encoding="UTF-8"?><svg id="Layer_2" xmlns="http://www.w3.org/2000/svg" width="1366.47" height="307.67" viewBox="0 0 1366.47 307.67"><defs><style>.cls-1{fill:#fff;}</style></defs><g id="Calque_1"><polygon class="cls-1" points="235.64 137.52 158.33 17.65 156.47 17.65 126.8 119.08 124.32 118.36 154.54 15.07 159.74 15.07 237.81 136.12 235.64 137.52"/><rect class="cls-1" x="88.71" y="167.3" width="42.23" height="2.58" transform="translate(-82.86 226.53) rotate(-73.66)"/><polygon class="cls-1" points="218.86 137.72 157.1 18.63 139.11 135.49 136.56 135.1 155.04 15.06 158.16 15.06 221.15 136.54 218.86 137.72"/><rect class="cls-1" x="107.19" y="186.74" width="42.68" height="2.58" transform="translate(-76.63 286.95) rotate(-81.39)"/><path class="cls-1" d="M103.65,175.27h-63.73v-19.96h63.73v19.96ZM42.5,172.69h58.57v-14.79h-58.57v14.79Z"/><path class="cls-1" d="M274.91,155.58h-61.85v-19.65h61.85v19.65ZM215.64,153h56.68v-14.48h-56.68v14.48Z"/><path class="cls-1" d="M253.52,56.62c-.38-2.32-2.23-4.42-2.25-4.44-7.41-7.07-13.7-3.26-17.08-1.22-1.48.89-2.55,1.54-3.51.75-1.5-1.25-.26-5.6,1.17-8.14,5.08-9.01,14.69-6.85,18.59-5.5,3.78,1.31,7.12,4.96,9.41,10.26l-2.29.99c-2.01-4.65-4.83-7.81-7.94-8.89-5.72-1.98-10.25-1.43-13.48,1.62-2.4,2.28-3.37,5.33-3.61,6.98.12-.07.24-.14.35-.21,3.38-2.04,11.3-6.84,20.16,1.62.16.17,2.43,2.72,2.92,5.78l-2.47.4Z"/><path class="cls-1" d="M253.08,72.46c-1.43,0-2.28-1.08-2.66-1.57-.08-.1-.15-.2-.22-.27-.93-.94-1.31-1.87-1.14-2.77.17-.89.84-1.58,1.97-2.06,2.33-1,2.63-4.5,2.63-4.54l2.49.18c-.01.21-.39,5.05-4.14,6.66-.25.11-.39.2-.46.26.05.09.16.26.41.51.13.13.27.3.42.5.53.68.62.8,1.39.37,1.72-.98,5.57-5.59,5.96-8.6l2.48.32c-.48,3.7-4.77,9.05-7.2,10.44-.73.42-1.37.58-1.93.58Z"/><path class="cls-1" d="M270.45,57.11l-2.3-.98c8.68-20.37,4.77-29.25-2.66-39.68-7.43,10.42-11.33,19.31-2.67,39.68l-2.3.98c-8.69-20.44-5.69-30.26,3.82-43.33.23-.32.61-.51,1.01-.51h.28c.4,0,.77.19,1.01.51,9.52,13.07,12.53,22.89,3.81,43.33Z"/><path class="cls-1" d="M277.46,56.62l-2.47-.4c.49-3.06,2.76-5.61,2.86-5.71,8.75-8.37,16.36-3.91,20.01-1.77.22.13.45.26.67.39-.18-1.53-1.08-4.54-3.48-6.89-3.24-3.16-7.98-3.79-13.71-1.81-3.1,1.07-5.92,4.23-7.95,8.89l-2.29-1c2.31-5.3,5.66-8.95,9.42-10.25,13.1-4.53,18.14,4.13,19.38,6.89,1.01,2.25,1.89,5.93.2,6.87-.99.54-1.99-.05-3.51-.94-3.61-2.11-9.64-5.65-16.96,1.35,0,0,0,0,0,0,0,0-1.81,2.08-2.18,4.38Z"/><path class="cls-1" d="M279.91,62.44h-28.84c-1.9,0-3.44-1.54-3.44-3.43s1.54-3.44,3.44-3.44h28.84c1.89,0,3.43,1.54,3.43,3.44s-1.54,3.43-3.43,3.43ZM251.07,58.06c-.52,0-.94.42-.94.94s.43.94.94.94h28.84c.52,0,.94-.42.94-.94s-.41-.94-.94-.94h-28.84Z"/><path class="cls-1" d="M277.9,72.46c-.55,0-1.19-.16-1.92-.58-2.44-1.41-6.71-6.75-7.19-10.45l2.48-.32c.39,3,4.23,7.61,5.95,8.6.76.43.86.31,1.39-.37.15-.19.29-.37.43-.5.25-.25.36-.41.41-.51-.07-.06-.21-.15-.46-.26-3.76-1.61-4.12-6.46-4.14-6.66l2.49-.17s.28,3.53,2.63,4.53c1.14.48,1.8,1.18,1.97,2.07.17.91-.21,1.84-1.14,2.76-.07.07-.14.16-.22.26-.39.49-1.23,1.58-2.67,1.58Z"/><path class="cls-1" d="M265.44,82.08c-.21,0-.43-.05-.62-.16-1.14-.65-3.85-2.27-4.53-3.47l-.17-.28c-.79-1.3-1.39-2.7-.03-5.58,1-2.11,1.54-8.98,1.66-11.45l2.49.12c-.05.96-.49,9.46-1.89,12.4-.9,1.9-.58,2.42-.09,3.21.07.11.14.23.21.34.23.36,1.55,1.32,2.98,2.18,1.47-.86,2.83-1.82,3.07-2.19.06-.11.13-.22.2-.34.48-.79.8-1.31-.1-3.21-1.39-2.94-1.84-11.44-1.89-12.4l2.49-.12c.12,2.47.65,9.34,1.65,11.45,1.37,2.88.77,4.29-.03,5.59l-.17.28c-.68,1.2-3.47,2.83-4.64,3.47-.19.1-.4.16-.6.16Z"/><path class="cls-1" d="M29.44,81c-1.42,0-2.98-.56-4.43-1.63-3.89-2.87-10.61-13.93-12.28-24.74-2.69-17.23,2.09-29.43,14.6-37.29,17.31-10.88,37.76-2.33,38.62-1.96.58.25.9.88.74,1.5-.08.33-2.06,8.04-9.15,11.81-3.53,1.88-7.66,2.43-12.32,1.65-5.63,6.62-9.07,13.78-11.47,23.77-1.66,6.91-.84,13.72-.3,18.23.37,3.05.59,4.9.08,6.04-.56,1.25-1.57,2.12-2.84,2.45-.4.1-.81.16-1.24.16ZM47.39,14.49c-5.92,0-12.57,1.2-18.69,5.04-11.54,7.25-15.94,18.6-13.42,34.71,1.55,10.01,7.8,20.51,11.26,23.05,1.24.91,2.54,1.31,3.48,1.06.52-.14.9-.47,1.14-1.01.22-.51-.05-2.73-.28-4.68-.56-4.69-1.42-11.78.35-19.14,2.34-9.74,5.81-17.17,11.14-23.78-1.04-.28-2.09-.61-3.18-1.01-.67-.25-1.01-.99-.77-1.66.24-.67.98-1.01,1.66-.77,1.57.57,3.08,1.01,4.53,1.31.26-.03.53.02.77.15,4.19.74,7.85.3,10.92-1.33,4.62-2.44,6.76-7.01,7.53-9.09-2.47-.88-8.85-2.86-16.44-2.86Z"/><path class="cls-1" d="M19.69,44.74c-3.53,0-6.11-.17-6.37-.19-.71-.05-1.25-.67-1.2-1.38.05-.71.66-1.25,1.38-1.2.15,0,15.31,1.02,22.85-1.93.66-.26,1.41.07,1.67.73.26.66-.07,1.41-.73,1.67-4.85,1.9-12.29,2.29-17.6,2.29Z"/><path class="cls-1" d="M20.61,52.43c-3.85,0-6.9-.26-7.17-.28-.71-.06-1.24-.69-1.17-1.4s.68-1.24,1.4-1.17c.14.01,13.9,1.18,19.62-1.44.65-.3,1.41-.01,1.71.64.3.65.01,1.41-.64,1.71-3.45,1.58-9.16,1.95-13.75,1.95Z"/><path class="cls-1" d="M18.35,73.62c-.24,0-.47-.01-.71-.02-.25-.01-.51-.03-.81-.03-.98,0-1.96-.56-2.75-1.57-1.06-1.34-1.52-3.12-1.19-4.53.3-1.25.41-6.95.41-10.25,0-.36.15-.7.42-.95.27-.24.62-.36.98-.34,3.64.29,13.72.75,16.63-.65.37-.18.81-.17,1.18.03.37.2.61.56.66.98,0,.06.8,6.3,3.61,8.82,1.86,1.67,2.18,3.7.97,6.04l-.07.14c-.3.63-1.03,1.19-1.96,1.48-.83.27-2.52.54-4.6-.61-.62-.35-.85-1.13-.51-1.75.35-.62,1.13-.85,1.75-.51,1.67.93,2.8.37,3.03.18l.06-.13c.5-.95.81-1.83-.4-2.92-2.55-2.3-3.72-6.58-4.18-8.88-4.17,1.02-11.76.67-14.99.46-.02,2.61-.11,7.93-.48,9.47-.15.61.13,1.57.67,2.28.35.46.67.62.76.63.34,0,.65.02.94.03.89.04,1.22.06,1.91-.42.58-.4,1.39-.26,1.8.33.41.59.26,1.39-.33,1.8-1.1.76-1.98.9-2.81.9ZM35.37,70.14s-.01.02-.02.03l.02-.03Z"/><path class="cls-1" d="M24.35,65.65c-3.34,0-6.68-.23-7.77-.31-.71-.05-1.24-.67-1.19-1.39.05-.71.68-1.24,1.39-1.19,5.69.43,12.6.45,13.86-.29.61-.36,1.41-.15,1.77.46.36.62.15,1.41-.46,1.77-1.26.74-4.43.95-7.6.95Z"/><path class="cls-1" d="M26.06,72.38c-3.25,0-6.18-.66-6.38-.7-.69-.16-1.13-.85-.97-1.54.16-.69.85-1.13,1.55-.97,1.95.44,7.66,1.27,10.61-.21.64-.32,1.41-.06,1.73.58.32.64.06,1.41-.58,1.73-1.7.85-3.9,1.12-5.96,1.12Z"/><path class="cls-1" d="M30.1,103.51s-.07,0-.11,0c-.66-.06-1.17-.6-1.18-1.26-.15-8.58-4.24-23.42-4.28-23.57-.19-.69.21-1.4.9-1.59.69-.19,1.4.21,1.59.9.14.52,3,10.9,4.02,19.49.74-.78,1.71-1.38,2.97-1.5,1-.1,2.19-.03,3.43.46-2.5-5.87-6.01-14.71-6.38-19.87-.05-.71.49-1.33,1.2-1.38.72-.06,1.33.48,1.38,1.2.42,5.91,5.7,17.98,7.69,22.53,1.17,2.68,1.42,3.24.29,3.81-.33.17-1.18.43-1.89-.78-1.45-2.46-3.29-3.6-5.47-3.39-2.08.21-2.88,3.89-2.89,3.93-.12.61-.65,1.05-1.27,1.05Z"/><path class="cls-1" d="M34.13,98.55c-.58,0-1.1-.39-1.25-.97l-4.48-17.44c-.18-.69.24-1.39.93-1.57.69-.17,1.39.24,1.57.93l4.48,17.44c.18.69-.24,1.39-.93,1.57-.11.03-.22.04-.32.04Z"/><path class="cls-1" d="M39.23,47.92c-.82,0-1.66-.23-2.41-.68-1.4-.85-2.2-2.35-2.2-4.13,0-.71.58-1.29,1.29-1.29s1.29.58,1.29,1.29c0,1.11.52,1.66.96,1.92.6.36,1.29.37,1.63.19.1-.05.17-.1.22-.13-.06-.29-.31-.88-.54-1.41-.75-1.75-1.47-6.52-1.55-7.06-.1-.71.38-1.36,1.09-1.47.71-.11,1.36.38,1.47,1.09.28,1.9.9,5.31,1.35,6.36.78,1.83,1.57,3.66-.83,4.91-.53.27-1.13.41-1.76.41Z"/><path class="cls-1" d="M47.03,20.49c-1.81,0-3.29-1.52-3.29-3.38s1.48-3.38,3.29-3.38,3.3,1.52,3.3,3.38-1.48,3.38-3.3,3.38ZM47.03,16.32c-.39,0-.71.36-.71.79s.32.8.71.8.72-.36.72-.8-.32-.79-.72-.79Z"/><rect class="cls-1" x="126.53" y="-9.13" width="4.44" height="78.97" transform="translate(98.16 159.05) rotate(-89.9)"/><rect class="cls-1" x="172.46" y="-26.78" width="4.59" height="182.19" transform="translate(53.56 205.7) rotate(-69.6)"/><path class="cls-1" d="M263.98,101.79c-2.69,0-4.88-2.25-4.88-5.02s2.19-5.03,4.88-5.03,4.89,2.26,4.89,5.03-2.19,5.02-4.89,5.02ZM263.98,94.55c-1.14,0-2.07,1-2.07,2.22s.93,2.21,2.07,2.21,2.08-.99,2.08-2.21-.93-2.22-2.08-2.22Z"/><path class="cls-1" d="M85.82,36.12c-2.65,0-4.8-2.15-4.8-4.79s2.15-4.8,4.8-4.8,4.79,2.15,4.79,4.8-2.15,4.79-4.79,4.79ZM85.82,29.25c-1.15,0-2.08.93-2.08,2.08s.93,2.07,2.08,2.07,2.07-.93,2.07-2.07-.93-2.08-2.07-2.08Z"/><path class="cls-1" d="M199.32,241.92l-1.15-2.31c32.13-15.95,52.87-48.65,54.13-85.34l2.58.09c-1.29,37.64-22.58,71.19-55.56,87.56Z"/><path class="cls-1" d="M115.84,242.17c-26.52-12.94-46.48-38.3-53.4-67.83l2.51-.59c6.74,28.79,26.19,53.5,52.02,66.1l-1.13,2.32Z"/><path class="cls-1" d="M212.58,247.58l-1.07-1.78-1.65,1.53-2.05-2.22,2.41-1.46c30.87-18.67,50-52.09,51.17-89.39l4.58.14c-1.22,38.86-21.18,73.69-53.39,93.17Z"/><path class="cls-1" d="M102.36,247.84c-26.32-15.83-44.49-41.75-51.17-72.99l4.48-.96c6.41,29.98,23.83,54.85,49.05,70.02l1.85,1.11-1.17,2.24-2.05-1.07-.99,1.65Z"/><path class="cls-1" d="M157.31,231.05c-34.18,0-63.99-22.78-74.18-56.68l2.47-.74c9.85,32.8,38.67,54.84,71.71,54.84,40.1,0,73.06-32.64,75.05-74.32l2.58.12c-2.05,43.05-36.15,76.77-77.63,76.77Z"/><path class="cls-1" d="M157.3,241.48c-39.55,0-74.38-27.7-84.69-67.35l2.5-.65c10.02,38.52,43.82,65.42,82.19,65.42,45.73,0,83.1-37.19,85.08-84.67l2.58.11c-2.04,48.87-40.55,87.15-87.66,87.15Z"/><path class="cls-1" d="M268.43,122.5l-.73-2.71,4.34-1.13c.17,0,.58-.1.72-.29.1-.13.1-.42.02-.79-.09-.38-.15-.6-.2-.73-.17.02-.49.07-1.06.22l-3.24.86-.72-2.72,3.25-.86c1.24-.32,2.33-.53,3.28.04.92.56,1.22,1.61,1.43,2.55.36,1.56-.09,2.57-.54,3.14-.84,1.08-2.16,1.31-2.68,1.36l-3.87,1.04Z"/><path class="cls-1" d="M240.31,132.77c-.45,0-.93-.09-1.42-.32-1.08-.53-1.85-1.61-2.36-3.32-.41-1.36-.31-2.6.3-3.71.79-1.44,2.4-2.51,4.76-3.18.78-.22,7.33-1.96,20.02-5.33l.66,2.5c-4.66,1.23-18.85,4.99-19.98,5.31-2.09.59-2.9,1.38-3.2,1.94-.26.48-.29,1.04-.09,1.72.28.93.65,1.56,1.02,1.74.31.15.74,0,1.23-.19l.16-.06c.72-.28,1.28-1.29,1.42-1.62l.07-.14c.1-.18,1.08-1.81,3.47-2.47.53-.15,4.02-1.1,8.45-2.29l6.79-1.83.67,2.49-6.79,1.83c-4.24,1.14-7.9,2.13-8.42,2.28-1.22.33-1.78,1.04-1.91,1.23-.23.51-1.13,2.27-2.84,2.93l-.14.05c-.4.16-1.09.42-1.88.42Z"/><path class="cls-1" d="M269.17,138.42h-8.55v-26.47h8.55v26.47ZM263.2,135.84h3.39v-21.31h-3.39v21.31Z"/><rect class="cls-1" x="154.38" y="17.04" width="6.22" height="40.32" transform="translate(-.12 .52) rotate(-.19)"/><path class="cls-1" d="M159.45,156.86l-2.03-1.6c8.35-10.6,22.54-21.62,42.19-32.76,14.59-8.27,26.91-13.52,27.04-13.58l1.01,2.38c-.49.21-48.76,20.87-68.2,45.56Z"/><path class="cls-1" d="M182.96,173.52l-2.38-1c20.66-49.16,52.36-61.25,53.7-61.74l.89,2.42c-.32.12-32.02,12.27-52.21,60.32Z"/><polygon class="cls-1" points="303.12 183.01 259.45 183.01 259.45 180.42 300.53 180.42 300.53 175.66 261.14 175.66 261.14 173.08 303.12 173.08 303.12 183.01"/><path class="cls-1" d="M298.76,247.04h-2.58v-14.01c-14.33-.59-20.88-11.01-20.88-20.71,0-5.43,1.98-10.49,5.58-14.26,3.79-3.97,9.06-6.18,15.3-6.45v-9.9h2.58v12.46h-1.29c-13.46,0-19.59,9.41-19.59,18.16s6.13,18.16,19.59,18.16h1.29v16.56Z"/><path class="cls-1" d="M209.76,190.74c-55.63-27.09-82.19-62.33-94.67-87.12-13.57-26.93-13.92-47.15-13.93-48l2.58-.03c0,.2.38,20.58,13.72,47.01,12.32,24.39,38.53,59.08,93.43,85.82l-1.13,2.32Z"/><path class="cls-1" d="M192.21,208.44c-29.66-13.08-53.72-30.3-71.52-51.19-14.26-16.73-24.55-35.82-30.59-56.76-10.28-35.64-4.55-64.69-4.49-64.98.01-.06.03-.12.05-.17l.46-1.29,2.43.86-.42,1.19c-.33,1.73-5.38,29.67,4.49,63.79,5.95,20.56,16.07,39.31,30.09,55.74,17.54,20.56,41.28,37.53,70.55,50.44l-1.04,2.36Z"/><path class="cls-1" d="M238.57,113.46c-18.14,0-25.33-15.32-27.15-20.15-9.94,4.54-18.84,5.12-26.48,1.74-10.75-4.76-15.66-15.87-17.13-19.87-9.55,4.54-18.2,5.22-25.74,2.04-11.23-4.75-16.42-16.57-17.83-20.36-13.74,3.52-24.06,2.49-30.68-3.04-8.51-7.12-7.58-18.93-7.53-19.43l2.57.22c0,.11-.84,11,6.64,17.24,6.12,5.11,16.04,5.85,29.49,2.21l1.2-.33.37,1.19c.05.15,4.73,14.83,16.8,19.92,7.15,3.02,15.52,2.14,24.88-2.62l1.39-.7.44,1.49c.04.14,4.36,14.45,16.2,19.69,7.24,3.2,15.86,2.42,25.61-2.33l1.39-.68.42,1.49c.26.95,6.74,23.21,30.63,19.22,14.46-2.42,17.41-10.38,17.53-10.71l2.44.83c-.13.4-3.46,9.74-19.55,12.43-2.09.35-4.06.51-5.91.51Z"/><path class="cls-1" d="M97.9,248.28c-7.35,0-14.7-2.16-19.9-6.49-10.46,8.64-29.45,8.65-39.85,0-8.6,7.07-23.87,8.55-34.71,3.2-.64-.32-.9-1.09-.59-1.73.32-.64,1.09-.9,1.73-.59,10.31,5.09,24.92,3.52,32.63-3.48.47-.5,1.38-.51,1.86-.03,9.42,8.65,28.61,8.63,38.06-.04.49-.45,1.26-.45,1.75,0,9.4,8.69,28.63,8.69,38.09,0,.49-.45,1.26-.45,1.75,0,9.41,8.69,28.64,8.69,38.11,0,.5-.45,1.26-.45,1.75,0,9.4,8.69,28.63,8.69,38.1,0,.5-.45,1.26-.45,1.75,0,9.41,8.69,28.63,8.69,38.1,0,.5-.45,1.26-.45,1.75,0,9.41,8.69,28.64,8.69,38.1,0,.5-.45,1.26-.45,1.75,0,7.56,6.99,21.77,8.64,32.34,3.77.65-.3,1.41-.02,1.71.63.3.65.02,1.42-.63,1.71-11.06,5.1-25.85,3.55-34.3-3.45-10.46,8.65-29.45,8.65-39.85,0-10.46,8.65-29.44,8.65-39.85,0-10.46,8.65-29.44,8.65-39.84,0-10.46,8.65-29.45,8.65-39.85,0-5.23,4.32-12.59,6.49-19.94,6.49Z"/><path class="cls-1" d="M57.84,285.32c-7.35,0-14.7-2.16-19.91-6.49-8.66,7.16-23.67,8.62-34.78,3.23-.64-.31-.91-1.08-.6-1.72.31-.64,1.08-.91,1.73-.6,10.43,5.06,25.14,3.46,32.78-3.57.5-.46,1.26-.45,1.75,0,9.41,8.7,28.64,8.7,38.1,0,.5-.46,1.26-.45,1.75,0,9.41,8.69,28.64,8.69,38.11,0,.5-.45,1.26-.45,1.75,0,9.41,8.69,28.64,8.69,38.1,0,.5-.45,1.26-.45,1.75,0,9.41,8.7,28.64,8.69,38.1,0,.49-.46,1.25-.46,1.75,0,9.42,8.69,28.65,8.69,38.1,0,.49-.46,1.26-.45,1.75,0,9.41,8.7,28.63,8.69,38.09,0,.49-.46,1.25-.45,1.75,0,7.6,7,21.82,8.65,32.39,3.76.65-.3,1.41-.02,1.71.63s.02,1.41-.63,1.71c-11.05,5.12-25.86,3.57-34.34-3.44-10.45,8.66-29.44,8.66-39.84,0-10.45,8.65-29.44,8.65-39.85,0-10.46,8.65-29.44,8.65-39.85,0-10.46,8.65-29.44,8.65-39.85,0-10.46,8.65-29.45,8.65-39.85,0-5.23,4.33-12.59,6.49-19.94,6.49Z"/><path class="cls-1" d="M57.84,267.39c-7.36,0-14.71-2.16-19.91-6.49-8.67,7.16-23.69,8.62-34.81,3.22-.64-.31-.91-1.08-.6-1.73.31-.64,1.08-.91,1.72-.6,10.44,5.06,25.16,3.46,32.82-3.56.5-.45,1.26-.45,1.75,0,9.42,8.69,28.65,8.69,38.1,0,.49-.46,1.26-.45,1.75,0,9.41,8.69,28.64,8.68,38.1,0,.5-.45,1.25-.45,1.75,0,9.42,8.68,28.65,8.68,38.1,0,.5-.46,1.26-.45,1.75,0,9.41,8.69,28.64,8.69,38.1,0,.49-.45,1.26-.45,1.75,0,9.42,8.69,28.65,8.69,38.1,0,.49-.46,1.26-.45,1.75,0,9.41,8.69,28.64,8.69,38.09,0,.5-.46,1.26-.45,1.75,0,7.6,7,21.83,8.65,32.4,3.75.65-.3,1.41-.02,1.71.63.3.65.02,1.41-.63,1.71-11.06,5.13-25.88,3.59-34.36-3.43-10.45,8.65-29.43,8.65-39.84,0-10.45,8.65-29.43,8.65-39.85,0-10.45,8.64-29.43,8.65-39.85,0-10.45,8.65-29.43,8.64-39.85,0-10.45,8.64-29.44,8.64-39.85,0-5.22,4.32-12.58,6.49-19.94,6.49Z"/><path class="cls-1" d="M314.64,307.67H0V0s314.66,0,314.66,0l-.03,307.67ZM7.34,300.33h299.96l.03-293H7.34v293Z"/><path class="cls-1" d="M157.26,220.9c-27.96,0-53.52-18.48-63.59-45.97l4.31-1.58c9.41,25.7,33.24,42.97,59.29,42.97,33.19,0,60.83-27.16,62.92-61.83l4.58.28c-2.23,37.09-31.88,66.15-67.5,66.15Z"/><path class="cls-1" d="M53.07,170.34c2.55,0,4.64-2.16,4.64-4.83s-2.09-4.83-4.64-4.83-4.64,2.17-4.64,4.83,2.08,4.83,4.64,4.83"/><path class="cls-1" d="M71.66,170.34c2.57,0,4.64-2.16,4.64-4.83s-2.08-4.83-4.64-4.83-4.63,2.17-4.63,4.83,2.08,4.83,4.63,4.83"/><path class="cls-1" d="M90.26,170.34c2.56,0,4.64-2.16,4.64-4.83s-2.08-4.83-4.64-4.83-4.63,2.17-4.63,4.83,2.07,4.83,4.63,4.83"/><path class="cls-1" d="M225.4,150.71c2.57,0,4.64-2.16,4.64-4.82s-2.08-4.82-4.64-4.82-4.64,2.16-4.64,4.82,2.09,4.82,4.64,4.82"/><path class="cls-1" d="M244,150.71c2.55,0,4.63-2.16,4.63-4.82s-2.08-4.82-4.63-4.82-4.65,2.16-4.65,4.82,2.08,4.82,4.65,4.82"/><path class="cls-1" d="M262.58,150.71c2.56,0,4.64-2.16,4.64-4.82s-2.08-4.82-4.64-4.82-4.64,2.16-4.64,4.82,2.08,4.82,4.64,4.82"/><polygon class="cls-1" points="154.73 218.61 154.73 186.42 160 190 160 218.57 154.73 218.61"/><path class="cls-1" d="M153.37,219.99v-36.14l7.99,5.42v30.65l-7.99.07ZM156.1,188.99v28.25l2.54-.02v-26.5l-2.54-1.72Z"/><polygon class="cls-1" points="154.75 77.7 154.75 152.57 158.31 155.52 160.02 154.52 160.02 76.61 154.75 77.7"/><path class="cls-1" d="M158.18,157.18l-4.79-3.97v-76.63l8-1.65v80.37l-3.21,1.87ZM156.11,151.93l2.34,1.93.21-.12v-75.46l-2.54.52v73.12Z"/><path class="cls-1" d="M352.08,132.58l-.81-1.14c.32-7.79.49-15.26.49-30.04,0-6.98.16-40.92.16-48.55,0-17.05-.49-25.82-1.14-34.26l.81-1.14,21.76-.32c3.25-.16,8.28-.16,12.67-.16,9.58,0,19.81.32,27.93,5.03,6.01,3.41,12.83,10.23,12.83,22.25,0,5.68-1.62,21.92-24.19,27.44,3.73.16,9.09.32,14.94,2.92,13.97,6.17,15.43,18.51,15.43,24.52,0,14.94-9.26,25.49-22.25,30.2-8.61,3.09-17.21,3.09-30.04,3.09l-28.58.16ZM369.62,66.49c14.62.16,25.82,0,32.64-5.36,4.06-3.41,6.66-8.77,6.66-14.13,0-4.38-1.79-8.61-4.55-11.53-5.68-5.52-15.75-5.52-19.49-5.52-5.2,0-10.23.16-15.26.49v36.05ZM369.62,80.13c0,18.51,0,21.27.65,38.97h3.08c12.18,0,22.08.16,28.42-2.44,7.79-2.92,12.18-9.74,12.18-17.86,0-19-20.95-19.16-28.74-19.16-1.46,0-2.92,0-11.69.32l-3.9.16Z"/><path class="cls-1" d="M461.85,75.58c0-36.37,19.49-60.57,53.1-60.57s52.45,22.57,52.45,60.24-20.95,59.27-52.94,59.27c-33.61-.16-52.61-22.9-52.61-58.95ZM548.08,74.45c0-6.01-.81-21.92-6.98-31.99-8.44-13.8-22.25-13.96-26.14-13.96-14.94,0-22.73,8.28-26.14,13.8-6.17,9.58-7.31,24.84-7.31,32.15,0,7.79,1.14,21.6,6.66,31.18,5.52,9.42,14.61,15.26,26.63,15.26,23.87.16,33.29-21.76,33.29-46.44Z"/><path class="cls-1" d="M688.7,18.1c-.33,14.78-.49,18.67-.49,31.5,0,6.98,0,12.18.16,24.36l.16,14.61c0,9.74,0,23.71-9.42,33.94-7.79,8.44-20.3,12.02-33.45,12.02-20.95,0-31.34-8.44-35.56-13.15-8.77-10.07-8.77-19.81-8.77-38.81v-16.56c0-23.55,0-26.31-.49-47.42l1.14-1.14c8.93-.16,10.07-.16,18.19-.49l.81,1.14c-.65,16.89-.65,46.28-.65,62.03s.33,26.14,6.01,32.8c2.76,3.41,9.09,7.96,20.3,7.96,4.06,0,16.89-.32,23.06-12.34,3.57-6.82,3.57-16.08,3.57-28.74,0-18.84-.16-42.71-1.3-61.22l.81-1.14c7.47-.16,8.44-.16,14.94-.49l.97,1.14Z"/><path class="cls-1" d="M794.25,118.45c-.49,5.36-.49,7.79-.81,12.5l-.81,1.14c-28.9,0-31.34,0-61.87.49l-.97-1.14c.33-13.15.81-32.64.81-61.06,0-25.01-.49-38.81-1.3-51.8l1.14-1.14c8.77-.16,10.39-.16,18.67-.49l.97.97c-1.62,30.37-1.62,69.34-1.62,73.23,0,12.5.16,19.16.33,26.79,18.02,0,22.9-.16,44.49-.81l.97,1.3Z"/><path class="cls-1" d="M810.32,75.58c0-36.37,19.49-60.57,53.1-60.57s52.45,22.57,52.45,60.24-20.95,59.27-52.94,59.27c-33.61-.16-52.61-22.9-52.61-58.95ZM896.55,74.45c0-6.01-.81-21.92-6.98-31.99-8.44-13.8-22.25-13.96-26.14-13.96-14.94,0-22.73,8.28-26.14,13.8-6.17,9.58-7.31,24.84-7.31,32.15,0,7.79,1.14,21.6,6.66,31.18,5.52,9.42,14.61,15.26,26.63,15.26,23.87.16,33.29-21.76,33.29-46.44Z"/><path class="cls-1" d="M1040.9,76.72c-.65,12.83-.81,25.82-.81,35.56,0,6.66.16,9.58.32,14.45l-.97,1.14c-11.37,4.55-22.25,6.66-34.43,6.66-15.91,0-33.45-3.9-45.47-16.89-7.96-8.61-14.29-22.73-14.29-41.41s6.33-33.94,15.43-44.01c14.62-16.4,33.61-17.21,42.22-17.21,17.54,0,28.58,4.87,33.13,6.98l.81,1.14c-.81,5.68-1.14,8.28-1.79,15.75l-1.3.32c-5.03-3.41-14.78-9.74-29.88-9.74-5.85,0-19.97.65-30.04,14.29-8.12,11.04-8.93,25.01-8.93,32.48,0,26.79,13.96,44.17,40.11,44.17,8.12,0,12.99-1.62,16.73-2.76l.16-12.18c0-12.5-.65-22.25-.97-28.25l.97-1.14c8.77,0,10.56,0,18.19-.32l.81.97Z"/><path class="cls-1" d="M1165.77,130.96l-.81,1.14c-9.58,0-10.23,0-19.97.49l-1.3-1.14c-9.58-17.05-19.16-34.1-28.9-51.15l-25.66-45.79,1.62,55.7c.16,6.82.49,13.48.65,20.3.49,13.48.49,13.8.81,20.46l-.97,1.14c-7.15,0-7.79,0-15.59.49l-.97-1.14c.65-15.43.81-31.02.81-46.44,0-22.08-.16-44.33-.97-66.42l.81-1.14c10.07-.16,11.69-.16,20.95-.49l1.62,1.14c11.04,19.81,22.41,40.43,33.13,59.27l20.14,35.56-1.3-53.91c-.65-25.49-.81-29.23-1.46-40.43l.97-1.14c7.31,0,8.93-.16,15.43-.49l.97,1.14c-.33,19.81-.65,40.11-.65,60.08,0,15.26.16,30.69.49,45.95l.16,6.82Z"/><path class="cls-1" d="M1276.84,118.78c-.49,5.52-.49,6.66-.81,12.18l-1.14,1.14c-31.67,0-36.7.16-67.55.49l-.81-1.14c.49-12.83.97-21.6.97-51.31,0-27.28,0-42.87-1.14-61.54l.97-1.14c31.99-.16,38.32-.16,68.2-.49l.97,1.14c-.49,4.87-.81,6.82-1.14,12.67l-.97,1.14c-20.95-.65-27.93-.65-48.55-.81-.49,14.94-.49,19.65-.49,34.59,19.97.16,26.14,0,45.96-.32l.81,1.14c-.65,5.68-.65,7.31-.81,12.5l-.97,1.14c-18.84-.49-22.9-.49-44.98-.49-.32,18.84-.16,23.38,0,38.81,24.52,0,29.55,0,50.5-.81l.97,1.14Z"/><path class="cls-1" d="M1345.36,80.13c-.49,5.52-.65,6.82-.97,12.18l-.97.97c-4.55-.16-8.12-.33-16.24-.33-8.61,0-16.89.16-25.49.33l-.97-1.3c.65-4.71.81-6.33.97-11.53l1.14-1.14c8.77.16,17.86.32,26.63.32,7.31,0,9.58-.16,15.1-.49l.81.97Z"/><path class="cls-1" d="M352.08,290.58l-.81-1.14c.32-7.79.49-15.26.49-30.04,0-6.98.16-40.92.16-48.55,0-17.05-.49-25.82-1.14-34.26l.81-1.14,21.76-.32c3.25-.16,8.28-.16,12.67-.16,9.58,0,19.81.32,27.93,5.03,6.01,3.41,12.83,10.23,12.83,22.25,0,5.68-1.62,21.92-24.19,27.44,3.73.16,9.09.33,14.94,2.92,13.97,6.17,15.43,18.51,15.43,24.52,0,14.94-9.26,25.49-22.25,30.2-8.61,3.09-17.21,3.09-30.04,3.09l-28.58.16ZM369.62,224.49c14.62.16,25.82,0,32.64-5.36,4.06-3.41,6.66-8.77,6.66-14.13,0-4.38-1.79-8.61-4.55-11.53-5.68-5.52-15.75-5.52-19.49-5.52-5.2,0-10.23.16-15.26.49v36.05ZM369.62,238.13c0,18.51,0,21.27.65,38.97h3.08c12.18,0,22.08.16,28.42-2.44,7.79-2.92,12.18-9.74,12.18-17.86,0-19-20.95-19.16-28.74-19.16-1.46,0-2.92,0-11.69.33l-3.9.16Z"/><path class="cls-1" d="M474.68,176.1c-.49,10.88-.81,23.71-.81,51.64,0,31.18.32,44.49,1.3,61.22l-.97,1.14c-7.14.16-9.42.16-18.02.49l-.97-1.14c.33-9.91.65-18.51.65-39.46,0-24.52,0-48.88-1.14-73.24l.81-1.3c7.14,0,9.74,0,18.02-.49l1.14,1.14Z"/><path class="cls-1" d="M566.1,276.45c-.49,5.36-.49,7.79-.81,12.5l-.81,1.14c-28.9,0-31.34,0-61.87.49l-.97-1.14c.33-13.15.81-32.64.81-61.06,0-25.01-.49-38.81-1.3-51.8l1.14-1.14c8.77-.16,10.39-.16,18.67-.49l.97.97c-1.62,30.37-1.62,69.34-1.62,73.24,0,12.5.16,19.16.33,26.79,18.02,0,22.9-.16,44.49-.81l.97,1.3Z"/><path class="cls-1" d="M643.07,276.45c-.49,5.36-.49,7.79-.81,12.5l-.81,1.14c-28.9,0-31.34,0-61.87.49l-.97-1.14c.33-13.15.81-32.64.81-61.06,0-25.01-.49-38.81-1.3-51.8l1.14-1.14c8.77-.16,10.39-.16,18.67-.49l.97.97c-1.62,30.37-1.62,69.34-1.62,73.24,0,12.5.16,19.16.33,26.79,18.02,0,22.9-.16,44.49-.81l.97,1.3Z"/><path class="cls-1" d="M710.94,178.86c5.36,17.86,11.53,38,16.4,53.42,5.03,15.59,13.15,40.6,18.02,56.18l-.65,1.3c-8.44.16-12.02.33-18.84.65l-1.14-1.14c-4.06-15.26-5.36-19.65-9.58-34.26-6.5,0-12.83-.16-19.32-.16-7.14,0-14.61.16-21.11.16-4.71,15.26-5.68,19.16-9.58,33.61l-1.14,1.14c-6.98,0-8.61,0-16.73.49l-.65-1.14c.49-1.79,1.14-3.41,1.79-5.03,6.17-17.54,12.18-35.08,18.02-52.61,9.74-28.74,13.32-39.3,18.02-54.89l1.3-1.14c11.37-.16,12.83-.16,23.22-.65l1.14,1.14.81,2.92ZM678.79,242.03c5.2,0,10.39.16,15.59.16,5.52,0,11.37-.16,17.05-.16l-15.59-54.89-17.05,54.89Z"/><path class="cls-1" d="M847.18,288.96l-.81,1.14c-9.58,0-10.23,0-19.97.49l-1.3-1.14c-9.58-17.05-19.16-34.1-28.9-51.15l-25.66-45.79,1.62,55.7c.16,6.82.49,13.48.65,20.3.49,13.48.49,13.8.81,20.46l-.97,1.14c-7.15,0-7.79,0-15.59.49l-.97-1.14c.65-15.43.81-31.02.81-46.44,0-22.08-.16-44.33-.97-66.42l.81-1.14c10.07-.16,11.69-.16,20.95-.49l1.62,1.14c11.04,19.81,22.41,40.43,33.13,59.27l20.14,35.56-1.3-53.91c-.65-25.49-.81-29.23-1.46-40.43l.97-1.14c7.31,0,8.93-.16,15.43-.49l.97,1.14c-.33,19.81-.65,40.11-.65,60.08,0,15.26.16,30.69.49,45.95l.16,6.82Z"/><path class="cls-1" d="M955.65,268.17c-.65,7.63-.81,9.91-1.14,16.08l-.97,1.14c-4.06,2.11-14.29,7.14-30.69,7.14-35.56,0-56.51-23.55-56.51-59.76,0-7.96.65-27.61,14.78-43.03,13.8-15.1,31.34-16.73,42.87-16.73,14.94,0,24.36,3.25,29.72,5.2l.65,1.3c-.81,5.85-.97,7.47-1.46,14.45l-1.46.65c-3.25-2.11-11.53-7.31-25.82-7.31-25.98,0-40.11,17.86-40.11,45.14,0,30.69,16.73,44.98,39.13,44.98,15.26,0,24.84-6.33,29.88-9.91l1.14.65Z"/><path class="cls-1" d="M963.77,233.58c0-36.37,19.49-60.57,53.1-60.57s52.45,22.57,52.45,60.25-20.95,59.27-52.94,59.27c-33.61-.16-52.61-22.9-52.61-58.95ZM1049.99,232.45c0-6.01-.81-21.92-6.98-31.99-8.44-13.8-22.25-13.96-26.14-13.96-14.94,0-22.73,8.28-26.14,13.8-6.17,9.58-7.31,24.85-7.31,32.15,0,7.79,1.14,21.6,6.66,31.18,5.52,9.42,14.61,15.26,26.63,15.26,23.87.16,33.29-21.76,33.29-46.44Z"/><path class="cls-1" d="M1176.33,176.1c-.33,14.78-.49,18.67-.49,31.5,0,6.98,0,12.18.16,24.36l.16,14.62c0,9.74,0,23.71-9.42,33.94-7.79,8.44-20.3,12.02-33.45,12.02-20.95,0-31.34-8.44-35.56-13.15-8.77-10.07-8.77-19.81-8.77-38.81v-16.56c0-23.55,0-26.31-.49-47.42l1.14-1.14c8.93-.16,10.07-.16,18.19-.49l.81,1.14c-.65,16.89-.65,46.28-.65,62.03s.33,26.14,6.01,32.8c2.76,3.41,9.09,7.96,20.3,7.96,4.06,0,16.89-.33,23.06-12.34,3.57-6.82,3.57-16.08,3.57-28.74,0-18.84-.16-42.71-1.3-61.22l.81-1.14c7.47-.16,8.44-.16,14.94-.49l.97,1.14Z"/><path class="cls-1" d="M1222.44,290.09c-9.26,0-9.42,0-17.86.49l-.97-1.14c.49-15.75.65-31.67.65-47.42,0-36.37-.65-49.2-1.62-65.44l.97-1.14h4.06c2.92,0,10.88-.16,16.4-.16l9.91-.16c8.93,0,17.54,0,25.49,2.76,12.5,4.22,20.46,13.15,20.46,28.74,0,12.99-6.98,26.14-27.77,31.83,2.76,3.73,15.43,22.25,18.35,26.47,5.03,7.15,7.31,10.39,17.38,23.71l-.65,1.62c-3.25,0-6.66,0-9.91.16-3.41.16-6.82.32-10.23.65l-1.14-.81-1.95-3.41c-4.71-8.28-10.23-16.08-15.43-24.03-9.74-14.78-10.72-16.4-14.61-21.6-5.03.16-6.01.33-11.69.16,0,8.93.16,33.94,1.14,47.58l-.97,1.14ZM1255.56,221.73c4.06-3.41,6.17-8.44,6.17-13.64,0-3.41-.81-7.47-3.09-11.2-5.2-7.96-13.96-8.44-26.14-8.44-2.11,0-5.03,0-10.55.16-.16,18.84-.16,21.43,0,39.46,12.34.16,25.82.49,33.61-6.33Z"/><path class="cls-1" d="M1364.85,189.42c-13.64-.33-15.91-.33-29.88-.33-.33,16.24-.33,18.84-.33,33.29,0,40.76.65,56.83,1.14,66.58l-.97,1.14c-9.26,0-9.74,0-18.67.49l-.81-1.14c.81-22.73.97-45.47.97-68.2,0-16.56-.32-25.17-.49-32.15-14.13.16-15.75.16-30.2.65l-.97-1.14c.33-5.68.33-6.33.65-12.02l.81-1.14c11.69,0,30.37,0,42.06-.16,12.5,0,25.01-.16,37.51-.32l.81,1.14c-.49,5.68-.65,7.47-.65,12.18l-.97,1.14Z"/></g></svg>