<?xml version="1.0" encoding="utf-8"?>
<!-- Generator: Adobe Illustrator 25.3.1, SVG Export Plug-In . SVG Version: 6.00 Build 0)  -->
<svg version="1.1" id="Calque_1" xmlns="http://www.w3.org/2000/svg" xmlns:xlink="http://www.w3.org/1999/xlink" x="0px" y="0px"
	 viewBox="0 0 612 80" style="enable-background:new 0 0 612 80;" xml:space="preserve">
<style type="text/css">
	.st0{fill:#FFFFFF;}
</style>
<g>
	<path class="st0" d="M7.7,8.4h67.6V23H27.6v9.5h46.6v14.6H27.6v10.5h48.6v14.9H7.7V8.4z"/>
	<path class="st0" d="M103,72.5H78.2l31.9-32.4L78.9,8.4h26.9l18.1,18.8L142,8.4h24.6l-30.8,31.3l31.4,32.8h-25.2l-19.6-19.9
		L103,72.5z"/>
	<path class="st0" d="M218.9,51.2h-28v21.4h-20.1V8.4h48.1c19.9,0,29.9,6.9,29.9,20.9v0.9C248.8,44.2,238.9,51.2,218.9,51.2z
		 M190.9,23v13.8h27.7c6.2,0,9.3-2.2,9.3-6.7v-0.3c0-4.5-3.1-6.8-9.3-6.8H190.9z"/>
	<path class="st0" d="M255,8.4H275v48.2h44.5v15.9H255V8.4z"/>
	<path class="st0" d="M366.4,7.3h3.7c5.6,0,10.6,0.4,15.2,1.2c4.5,0.8,8.3,1.8,11.4,3.1c3.1,1.3,5.8,2.8,8.1,4.7
		c2.3,1.8,4.1,3.7,5.4,5.5c1.3,1.8,2.3,3.9,3.1,6c0.8,2.2,1.3,4.1,1.6,5.9c0.2,1.7,0.3,3.5,0.3,5.4v2.6c0,1.8-0.1,3.6-0.3,5.3
		c-0.2,1.7-0.7,3.7-1.6,5.9c-0.8,2.2-1.8,4.3-3.1,6.1c-1.3,1.9-3.1,3.7-5.4,5.6s-5,3.4-8.1,4.7c-3,1.3-6.8,2.3-11.4,3.1
		c-4.6,0.8-9.6,1.2-15.2,1.2h-3.7c-5.6,0-10.7-0.4-15.3-1.2c-4.6-0.8-8.4-1.9-11.5-3.1c-3-1.3-5.7-2.9-8.1-4.7
		c-2.3-1.9-4.1-3.7-5.4-5.6c-1.3-1.9-2.3-3.9-3.1-6.1s-1.3-4.2-1.5-5.9c-0.2-1.7-0.3-3.5-0.3-5.3V39c0-1.9,0.1-3.7,0.3-5.4
		c0.2-1.7,0.7-3.6,1.5-5.9c0.8-2.2,1.8-4.2,3.1-6.1c1.3-1.8,3.1-3.7,5.4-5.5c2.3-1.8,5-3.4,8.1-4.7c3.1-1.3,6.9-2.3,11.5-3.1
		C355.8,7.7,360.9,7.3,366.4,7.3z M394.2,39.6c0-1.6-0.2-3.1-0.6-4.6c-0.4-1.5-1.2-3-2.3-4.5c-1.1-1.5-2.6-2.8-4.5-3.9
		c-1.8-1.1-4.3-2-7.5-2.7c-3.2-0.7-6.8-1.1-11-1.1c-17.3,0-25.9,5.6-25.9,16.8v1c0,2.1,0.4,4,1.1,5.9c0.7,1.8,1.9,3.7,3.7,5.5
		c1.8,1.8,4.4,3.3,8.1,4.4s8,1.6,13.1,1.6c5.1,0,9.5-0.5,13.1-1.6s6.3-2.5,8.1-4.3c1.8-1.8,3-3.6,3.7-5.5c0.7-1.8,1.1-3.8,1.1-5.9
		V39.6z"/>
	<path class="st0" d="M442,49.8v22.7h-20.1V8.4h51.7c18.6,0,27.8,5.5,27.8,16.6v1c0,2.1-0.4,4.1-1.2,5.8c-0.8,1.8-1.9,3.2-3.2,4.2
		c-1.4,1.1-2.6,1.9-3.8,2.5c-1.2,0.6-2.4,1.1-3.7,1.5c3.6,0.9,6.5,2.6,8.7,5.2c2.3,2.5,3.4,5.7,3.4,9.6v9.4c0,3.6,0.4,6.2,1.2,7.8
		v0.4h-20.4c-0.6-0.8-0.9-2.2-0.9-4v-7.4c0-4-1-6.8-3-8.6c-2-1.8-5.5-2.7-10.3-2.7H442z M442,23v12.6h30.4c2.7,0,4.7-0.6,6.1-1.7
		c1.4-1.1,2-2.7,2-4.6v-0.1c0-1.8-0.7-3.3-2-4.5c-1.3-1.1-3.4-1.7-6.1-1.7H442z"/>
	<path class="st0" d="M509.1,8.4h67.6V23h-47.7v9.5h46.6v14.6h-46.6v10.5h48.6v14.9h-68.4V8.4z"/>
	<path class="st0" d="M604.3,57.5v15.1h-20.8V57.5H604.3z"/>
</g>
</svg>
