<?xml version="1.0" encoding="UTF-8"?><svg xmlns="http://www.w3.org/2000/svg" width="91mm" height="140.67mm" viewBox="0 0 257.95 398.75"><defs><style>.cls-1{isolation:isolate;}.cls-2{mix-blend-mode:multiply;}.cls-3{fill:#fff;}</style></defs><g class="cls-1"><g id="Calque_1"><rect class="cls-3" x="17.64" y="206.26" width="21.17" height="130.56"/><rect class="cls-3" x="65.99" y="210.72" width="21.17" height="130.56"/><rect class="cls-3" x="137.27" y="216.96" width="21.17" height="130.56"/><rect class="cls-3" x="205.02" y="210.72" width="21.17" height="130.56"/><g class="cls-2"><rect class="cls-3" x="236.78" y="204.48" width="21.17" height="130.56"/></g><rect class="cls-3" x=".44" y="12.48" width="21.17" height="130.57"/><rect class="cls-3" x="88.84" y="3.57" width="21.17" height="130.56"/><rect class="cls-3" x="120.6" width="21.17" height="130.57"/><g class="cls-2"><rect class="cls-3" x="174.23" y="6.24" width="21.17" height="130.56"/></g><rect class="cls-3" x="236.34" y="12.48" width="21.17" height="130.57"/><rect class="cls-3" x="205.99" y="71.52" width="21.17" height="65.28"/><g class="cls-2"><rect class="cls-3" x="65.99" y="320.11" width="52.93" height="21.17"/></g><g class="cls-2"><rect class="cls-3" x="137.27" y="320.11" width="52.93" height="21.17"/></g><g class="cls-2"><rect class="cls-3" x="65.99" y="210.72" width="52.93" height="21.17"/></g><g class="cls-2"><rect class="cls-3" x="65.99" y="265.42" width="52.93" height="21.17"/></g><rect class="cls-3" x="205.02" y="265.42" width="52.93" height="21.17"/><g class="cls-2"><rect class="cls-3" y="210.72" width="52.93" height="21.17"/></g><rect class="cls-3" x="137.27" y="210.72" width="52.93" height="21.17"/><rect class="cls-3" x=".44" y="115.63" width="61.58" height="21.17"/><g class="cls-2"><rect class="cls-3" x="88.84" y="115.63" width="52.93" height="21.17"/></g><rect class="cls-3" x="88.84" y="6.24" width="52.93" height="21.17"/><g class="cls-2"><rect class="cls-3" x="174.23" y="115.63" width="83.28" height="21.17"/></g><g class="cls-2"><rect class="cls-3" x="112.04" y="164.03" width="33.88" height="21.17"/></g><path class="cls-3" d="M146.42,381.2c1.14,0,1.64.64,1.64,2.11v1.14c0,1.64-.73,2.16-1.93,2.16h-1.26v-5.42h1.55ZM146.3,389.54c1.46,0,2.08.59,2.08,2.49v1.79c0,1.52-.59,2.02-1.67,2.02h-1.85v-6.29h1.43ZM146.51,378.28h-4.86v20.47h5.06c3.22,0,4.88-1.69,4.88-4.85v-1.67c0-2.16-.67-3.72-2.39-4.39,1.43-.67,2.07-2.02,2.07-4.13v-.73c0-3.16-1.43-4.71-4.76-4.71M126.47,381.91l1.55,10.35h-3.1l1.55-10.35ZM128.98,378.28h-4.71l-3.28,20.47h2.95l.56-3.72h3.95l.56,3.72h3.25l-3.28-20.47ZM104.04,398.75h8.51v-2.92h-5.29v-17.55h-3.21v20.47Z"/></g></g></svg>