<?xml version="1.0" encoding="UTF-8"?><svg id="Calque_1" xmlns="http://www.w3.org/2000/svg" width="18.02cm" height="7.25cm" viewBox="0 0 510.72 205.42"><defs><style>.cls-1{fill:#fff;}</style></defs><path class="cls-1" d="M0,174.41c163-1.3,345.86-1.31,508.86,0-163,1.31-345.86,1.3-508.86,0H0Z"/><path class="cls-1" d="M3.91,188.47h4.62c.6,0,1.22.05,1.83.15s1.17.3,1.67.61.89.74,1.2,1.29.46,1.28.46,2.19c0,.82-.24,1.53-.72,2.13-.48.6-1.2,1.01-2.15,1.2v.05c.53.04,1.01.17,1.45.37.44.2.82.48,1.13.82s.56.75.74,1.21c.17.47.26.98.26,1.54,0,.92-.18,1.67-.53,2.26-.36.58-.8,1.04-1.34,1.37-.54.33-1.12.56-1.75.68-.63.12-1.21.18-1.76.18H3.91v-16.04ZM5.41,195.4h3.1c.77,0,1.4-.09,1.88-.28.48-.19.86-.42,1.13-.69.27-.27.45-.56.54-.87.09-.31.13-.59.13-.85,0-.56-.09-1.02-.28-1.39-.19-.37-.44-.66-.76-.88s-.69-.37-1.11-.46-.87-.14-1.34-.14h-3.31v5.57ZM5.41,203.15h3.42c.88,0,1.58-.11,2.12-.32s.95-.48,1.24-.79.48-.65.58-1.01c.1-.36.15-.68.15-.96,0-.59-.11-1.1-.34-1.52-.23-.42-.52-.77-.88-1.03-.36-.26-.77-.46-1.24-.58-.46-.12-.93-.18-1.39-.18h-3.65v6.39Z"/><path class="cls-1" d="M9.03,205.01H3.41v-17.04h5.12c.62,0,1.27.05,1.91.15.68.11,1.31.34,1.85.68.56.35,1.02.85,1.37,1.47.35.62.53,1.44.53,2.43,0,.93-.28,1.75-.83,2.44-.26.33-.58.6-.95.82.02.01.05.02.07.03.49.23.92.54,1.29.93.36.39.64.85.84,1.38.19.52.29,1.1.29,1.72,0,1.01-.2,1.86-.6,2.51-.4.65-.9,1.17-1.5,1.54-.59.36-1.23.62-1.91.75-.66.13-1.28.19-1.85.19ZM4.41,204.01h4.62c.51,0,1.07-.06,1.66-.17.56-.11,1.09-.32,1.58-.61.47-.29.86-.69,1.17-1.21.3-.5.46-1.17.46-1.99,0-.5-.08-.96-.23-1.37-.15-.4-.36-.75-.63-1.04-.27-.29-.6-.53-.98-.7-.31-.15-.65-.25-1.02-.3.33.13.65.3.93.5.43.31.77.71,1.03,1.2.26.49.4,1.08.4,1.76,0,.33-.06.7-.17,1.1-.12.43-.35.84-.69,1.21-.34.37-.82.68-1.42.92-.6.24-1.35.35-2.3.35h-3.92v-7.39h4.15c.43,0,.85.05,1.27.14v-.73l.4-.13c.84-.17,1.45-.51,1.86-1.02.41-.52.62-1.11.62-1.82,0-.82-.13-1.47-.4-1.94-.27-.47-.61-.85-1.03-1.11-.43-.27-.93-.46-1.48-.54-.6-.09-1.19-.14-1.76-.14h-4.12v15.04ZM5.91,202.65h2.92c.81,0,1.46-.09,1.94-.28.46-.18.82-.41,1.05-.66.23-.26.39-.53.47-.81.09-.31.13-.59.13-.83,0-.5-.09-.94-.28-1.28-.19-.35-.44-.64-.74-.86-.31-.23-.67-.39-1.06-.5-.42-.11-.84-.16-1.27-.16h-3.15v5.39ZM8.51,195.9h-3.6v-6.57h3.81c.5,0,.98.05,1.44.15.49.1.92.29,1.29.54.38.26.69.62.92,1.07.22.44.34.99.34,1.62,0,.31-.05.64-.15.99-.12.39-.34.75-.67,1.08-.32.32-.76.59-1.31.8-.55.21-1.22.32-2.06.32ZM5.91,194.9h2.6c.71,0,1.28-.08,1.7-.25.42-.16.74-.36.96-.58.21-.21.35-.43.42-.66.08-.26.11-.5.11-.71,0-.48-.08-.87-.23-1.17-.15-.3-.35-.53-.6-.7-.26-.18-.57-.31-.93-.39-.39-.08-.8-.12-1.23-.12h-2.81v4.57Z"/><path class="cls-1" d="M28.7,196.49c0-1.22.2-2.35.61-3.38.41-1.03.98-1.91,1.7-2.66.72-.75,1.6-1.33,2.62-1.76s2.14-.63,3.37-.63,2.35.21,3.37.63,1.89,1.01,2.62,1.76c.72.75,1.29,1.64,1.7,2.66.41,1.03.61,2.15.61,3.38s-.2,2.35-.61,3.39c-.41,1.03-.98,1.93-1.7,2.67-.72.75-1.6,1.33-2.62,1.74s-2.14.62-3.37.62-2.35-.21-3.37-.62-1.89-1-2.62-1.74c-.72-.75-1.29-1.64-1.7-2.67-.41-1.03-.61-2.16-.61-3.39ZM30.2,196.49c0,1,.16,1.93.48,2.79.32.86.77,1.61,1.36,2.24.59.63,1.3,1.13,2.14,1.5.84.36,1.78.54,2.82.54s1.98-.18,2.82-.54,1.55-.86,2.14-1.5c.59-.63,1.04-1.38,1.36-2.24.32-.86.48-1.79.48-2.79s-.16-1.93-.48-2.79-.77-1.61-1.36-2.24c-.59-.63-1.3-1.13-2.14-1.5s-1.78-.54-2.82-.54-1.98.18-2.82.54c-.84.36-1.55.86-2.14,1.5-.59.63-1.04,1.38-1.36,2.24s-.48,1.79-.48,2.79Z"/><path class="cls-1" d="M37,205.42c-1.28,0-2.48-.22-3.55-.66-1.08-.44-2.02-1.06-2.79-1.86-.77-.79-1.37-1.74-1.81-2.84-.43-1.09-.65-2.29-.65-3.57s.22-2.48.65-3.56c.43-1.08,1.04-2.03,1.81-2.83.77-.79,1.71-1.42,2.78-1.87,2.16-.89,4.96-.89,7.11,0,1.08.45,2.01,1.08,2.78,1.87s1.38,1.75,1.81,2.83c.43,1.08.65,2.28.65,3.56s-.22,2.48-.65,3.57c-.43,1.09-1.04,2.05-1.81,2.84-.77.79-1.71,1.42-2.79,1.86-1.08.44-2.27.66-3.55.66ZM37,188.56c-1.15,0-2.22.2-3.17.6-.95.39-1.77.95-2.45,1.64-.68.7-1.21,1.54-1.59,2.5-.38.96-.58,2.04-.58,3.19s.19,2.23.58,3.2c.38.97.92,1.81,1.59,2.51.67.69,1.5,1.24,2.45,1.63,1.92.78,4.44.78,6.35,0,.95-.39,1.77-.93,2.45-1.63.68-.7,1.21-1.54,1.59-2.51.38-.97.58-2.05.58-3.2s-.19-2.23-.58-3.19c-.38-.96-.92-1.8-1.6-2.5-.67-.7-1.5-1.25-2.45-1.64-.96-.4-2.02-.6-3.17-.6ZM37,204.06c-1.11,0-2.12-.2-3.02-.58-.9-.39-1.68-.93-2.31-1.61-.63-.68-1.12-1.49-1.46-2.41-.34-.91-.51-1.91-.51-2.96s.17-2.05.51-2.96c.34-.92.83-1.73,1.46-2.41.63-.68,1.41-1.22,2.31-1.62,1.79-.78,4.25-.78,6.04,0,.9.39,1.68.93,2.31,1.62.63.68,1.12,1.49,1.46,2.41.34.91.51,1.91.51,2.96s-.17,2.05-.51,2.96c-.34.92-.83,1.73-1.46,2.41-.63.68-1.41,1.22-2.31,1.61-.9.39-1.91.58-3.02.58ZM37,189.92c-.97,0-1.85.17-2.62.5s-1.43.8-1.97,1.38c-.54.58-.96,1.28-1.26,2.08-.3.8-.45,1.68-.45,2.61s.15,1.81.45,2.61c.29.8.72,1.49,1.26,2.08.54.58,1.2,1.04,1.97,1.38,1.54.67,3.7.67,5.25,0,.77-.33,1.44-.8,1.97-1.38.54-.58.96-1.28,1.26-2.08.3-.8.45-1.68.45-2.61s-.15-1.81-.45-2.61c-.29-.8-.72-1.5-1.26-2.08-.54-.58-1.2-1.04-1.97-1.38-.77-.33-1.65-.5-2.62-.5Z"/><path class="cls-1" d="M71.6,198.37c0,.86-.1,1.68-.3,2.47-.2.79-.53,1.48-.98,2.09-.46.6-1.07,1.09-1.81,1.45-.75.36-1.67.54-2.75.54s-2-.18-2.75-.54c-.75-.36-1.35-.84-1.81-1.45s-.79-1.3-.98-2.09c-.2-.79-.3-1.61-.3-2.47v-9.9h1.5v9.52c0,.57.05,1.19.16,1.83.11.65.31,1.25.62,1.81.31.56.75,1.02,1.31,1.38s1.32.54,2.25.54,1.69-.18,2.26-.54,1.01-.82,1.31-1.38c.31-.56.52-1.16.62-1.81.11-.65.16-1.26.16-1.83v-9.52h1.5v9.9Z"/><path class="cls-1" d="M65.75,205.42c-1.16,0-2.16-.2-2.97-.59-.82-.39-1.49-.93-1.99-1.6-.5-.66-.86-1.42-1.07-2.27-.21-.82-.31-1.69-.31-2.59v-10.4h2.5v10.02c0,.54.05,1.13.15,1.75.09.59.29,1.14.57,1.65.27.49.65.88,1.15,1.2.48.31,1.15.46,1.98.46s1.5-.16,1.99-.46c.5-.32.88-.72,1.15-1.2.28-.51.47-1.05.57-1.65.1-.62.15-1.21.15-1.75v-10.02h2.5v10.4c0,.89-.1,1.76-.31,2.59-.21.85-.57,1.61-1.07,2.27-.51.67-1.18,1.2-2,1.6-.81.39-1.81.59-2.97.59ZM60.41,188.97v9.4c0,.82.09,1.61.28,2.35.18.72.48,1.36.9,1.91.41.54.96.98,1.63,1.3.67.33,1.53.49,2.53.49s1.86-.17,2.53-.49c.68-.33,1.23-.76,1.64-1.3.42-.55.72-1.19.9-1.91.19-.75.28-1.54.28-2.35v-9.4h-.5v9.02c0,.59-.06,1.24-.17,1.92-.12.71-.34,1.37-.68,1.98-.35.63-.85,1.15-1.48,1.56-.64.41-1.49.62-2.53.62s-1.88-.21-2.52-.62c-.64-.41-1.14-.93-1.48-1.56-.34-.61-.57-1.28-.68-1.98-.11-.67-.17-1.32-.17-1.91v-9.02h-.5Z"/><path class="cls-1" d="M87.26,188.47h1.5v14.69h7.48v1.36h-8.97v-16.04Z"/><path class="cls-1" d="M96.73,205.01h-9.97v-17.04h2.5v14.69h7.48v2.36ZM87.76,204.01h7.97v-.36h-7.48v-14.69h-.5v15.04Z"/><path class="cls-1" d="M109.11,196.49c0-1.22.2-2.35.61-3.38.41-1.03.98-1.91,1.7-2.66.72-.75,1.6-1.33,2.62-1.76s2.14-.63,3.37-.63,2.35.21,3.37.63,1.89,1.01,2.62,1.76c.72.75,1.29,1.64,1.7,2.66.41,1.03.61,2.15.61,3.38s-.2,2.35-.61,3.39c-.41,1.03-.98,1.93-1.7,2.67-.72.75-1.6,1.33-2.62,1.74s-2.14.62-3.37.62-2.35-.21-3.37-.62-1.89-1-2.62-1.74c-.72-.75-1.29-1.64-1.7-2.67-.41-1.03-.61-2.16-.61-3.39ZM110.6,196.49c0,1,.16,1.93.48,2.79.32.86.77,1.61,1.36,2.24.59.63,1.3,1.13,2.14,1.5.84.36,1.78.54,2.82.54s1.98-.18,2.82-.54,1.55-.86,2.14-1.5c.59-.63,1.04-1.38,1.36-2.24.32-.86.48-1.79.48-2.79s-.16-1.93-.48-2.79-.77-1.61-1.36-2.24c-.59-.63-1.3-1.13-2.14-1.5s-1.78-.54-2.82-.54-1.98.18-2.82.54c-.84.36-1.55.86-2.14,1.5-.59.63-1.04,1.38-1.36,2.24s-.48,1.79-.48,2.79Z"/><path class="cls-1" d="M117.4,205.42c-1.28,0-2.48-.22-3.55-.66-1.08-.44-2.02-1.06-2.79-1.86-.76-.79-1.37-1.74-1.81-2.84-.43-1.09-.65-2.29-.65-3.57s.22-2.48.65-3.56c.43-1.08,1.04-2.04,1.81-2.83.77-.79,1.71-1.42,2.78-1.87,2.16-.89,4.96-.89,7.11,0,1.08.45,2.02,1.08,2.78,1.87.77.8,1.38,1.75,1.81,2.83.43,1.08.65,2.28.65,3.56s-.22,2.48-.65,3.57c-.43,1.09-1.04,2.04-1.81,2.84-.77.79-1.71,1.42-2.79,1.86-1.08.44-2.27.66-3.55.66ZM117.4,188.56c-1.15,0-2.22.2-3.17.6-.95.39-1.77.95-2.45,1.64-.67.7-1.21,1.54-1.6,2.5-.38.96-.57,2.04-.57,3.19s.19,2.23.58,3.21c.38.97.92,1.81,1.59,2.51.67.7,1.5,1.24,2.45,1.63,1.92.78,4.44.78,6.35,0,.95-.39,1.77-.93,2.45-1.63.68-.7,1.21-1.54,1.59-2.51.38-.97.58-2.05.58-3.2s-.19-2.23-.58-3.19c-.38-.96-.92-1.8-1.59-2.5-.67-.69-1.5-1.25-2.45-1.64-.96-.4-2.02-.6-3.17-.6ZM117.4,204.06c-1.11,0-2.12-.2-3.02-.58-.9-.39-1.67-.93-2.31-1.61-.63-.68-1.12-1.49-1.46-2.41-.34-.91-.51-1.91-.51-2.96s.17-2.05.51-2.96c.34-.92.83-1.73,1.46-2.41.63-.68,1.41-1.23,2.31-1.62,1.8-.77,4.25-.77,6.04,0,.9.39,1.68.93,2.31,1.62.63.68,1.12,1.49,1.46,2.41.34.91.51,1.91.51,2.96s-.17,2.05-.51,2.96c-.34.92-.83,1.74-1.46,2.41-.63.68-1.41,1.22-2.31,1.61-.9.39-1.91.58-3.02.58ZM117.4,189.92c-.97,0-1.85.17-2.62.5-.77.33-1.43.8-1.97,1.38-.54.58-.96,1.28-1.26,2.08-.3.8-.45,1.68-.45,2.61s.15,1.81.45,2.61c.29.8.72,1.49,1.26,2.08.54.58,1.2,1.04,1.97,1.38,1.54.67,3.7.67,5.25,0,.77-.33,1.44-.8,1.97-1.38.54-.58.96-1.28,1.26-2.08.3-.8.44-1.68.44-2.61s-.15-1.81-.44-2.61c-.29-.8-.72-1.5-1.26-2.08-.54-.58-1.2-1.04-1.97-1.38-.77-.33-1.65-.5-2.62-.5Z"/><path class="cls-1" d="M153.84,203.47c-.94.53-1.91.9-2.91,1.12s-2.03.33-3.07.33c-1.22,0-2.35-.21-3.37-.62s-1.89-1-2.62-1.74c-.72-.75-1.29-1.64-1.7-2.67-.41-1.03-.61-2.16-.61-3.39s.2-2.35.61-3.38c.41-1.03.98-1.91,1.7-2.66.72-.75,1.6-1.33,2.62-1.76,1.02-.42,2.14-.63,3.37-.63,2.39,0,4.31.74,5.78,2.22l-1.09,1.13c-.24-.29-.54-.56-.9-.81-.35-.25-.74-.46-1.15-.63-.42-.17-.85-.31-1.3-.41s-.9-.15-1.34-.15c-1.04,0-1.98.18-2.82.54-.84.36-1.55.86-2.14,1.5-.59.63-1.04,1.38-1.36,2.24s-.48,1.79-.48,2.79.16,1.93.48,2.79c.32.86.77,1.61,1.36,2.24.59.63,1.3,1.13,2.14,1.5.84.36,1.78.54,2.82.54.86,0,1.67-.07,2.43-.2.75-.13,1.44-.39,2.06-.75v-5.39h-3.85v-1.36h5.35v7.61Z"/><path class="cls-1" d="M147.85,205.42c-1.28,0-2.48-.22-3.55-.66-1.08-.44-2.02-1.06-2.79-1.86-.76-.79-1.37-1.74-1.81-2.84-.43-1.09-.65-2.29-.65-3.57s.22-2.48.65-3.56c.43-1.08,1.04-2.03,1.81-2.83.77-.79,1.71-1.42,2.79-1.87,1.08-.45,2.27-.67,3.56-.67,2.51,0,4.58.8,6.14,2.37l.34.35-1.81,1.89-.36-.43c-.21-.25-.48-.5-.8-.72-.32-.22-.68-.42-1.06-.58-.39-.16-.8-.29-1.22-.38-1.45-.31-2.77-.1-3.85.37-.77.33-1.43.8-1.97,1.38-.54.58-.96,1.28-1.26,2.08-.29.8-.44,1.68-.44,2.61s.15,1.81.44,2.61c.29.8.72,1.49,1.26,2.08.54.58,1.2,1.04,1.97,1.38,1.43.62,3.39.59,4.96.31.59-.11,1.15-.29,1.65-.55v-4.6h-3.85v-2.36h6.35v8.41l-.25.14c-.97.55-2,.95-3.05,1.17-1.04.23-2.1.34-3.18.34ZM147.85,188.56c-1.15,0-2.22.2-3.17.6-.95.39-1.77.95-2.45,1.64-.67.7-1.21,1.54-1.59,2.5-.38.96-.57,2.03-.57,3.19s.19,2.23.58,3.2c.38.97.92,1.82,1.59,2.51.67.69,1.5,1.24,2.45,1.63,1.79.73,4.07.72,6.14.27.86-.19,1.71-.5,2.52-.93v-6.82h-4.35v.36h3.85v6.18l-.25.14c-.67.39-1.42.66-2.23.81-.78.14-1.63.21-2.51.21-1.11,0-2.12-.2-3.02-.58-.9-.39-1.67-.93-2.31-1.61-.63-.68-1.12-1.49-1.46-2.41-.34-.91-.51-1.91-.51-2.96s.17-2.05.51-2.96c.34-.92.83-1.73,1.46-2.41.63-.68,1.41-1.23,2.31-1.62,1.28-.55,2.82-.78,4.46-.43.48.1.94.25,1.39.44.45.19.87.42,1.25.69.22.16.43.32.61.49l.38-.39c-1.32-1.15-3.02-1.74-5.07-1.74Z"/><path class="cls-1" d="M169.79,188.47h1.93l9.77,14.05h.04v-14.05h1.5v16.04h-1.93l-9.77-14.05h-.05v14.05h-1.5v-16.04Z"/><path class="cls-1" d="M183.52,205.01h-2.69l-9.05-13.02v13.02h-2.5v-17.04h2.69l9.05,13.02v-13.02h2.5v17.04ZM181.36,204.01h1.16v-15.04h-.5v14.05h-.76l-.19-.21-9.62-13.84h-1.16v15.04h.5v-14.05h.76l.2.21,9.62,13.84Z"/><path class="cls-1" d="M198.98,188.47h9.81v1.36h-8.32v5.71h7.8v1.36h-7.8v6.26h8.68v1.36h-10.17v-16.04Z"/><path class="cls-1" d="M209.65,205.01h-11.17v-17.04h10.81v2.36h-8.32v4.71h7.8v2.36h-7.8v5.26h8.68v2.36ZM199.48,204.01h9.17v-.36h-8.68v-7.26h7.8v-.36h-7.8v-6.71h8.32v-.36h-8.81v15.04Z"/><path class="cls-1" d="M222.75,198.53h5.6v1.22h-5.6v-1.22Z"/><path class="cls-1" d="M228.85,200.25h-6.6v-2.22h6.6v2.22ZM223.25,199.25h4.6v-.22h-4.6v.22Z"/><path class="cls-1" d="M243.08,188.47h4.62c.6,0,1.22.05,1.83.15s1.17.3,1.67.61.89.74,1.2,1.29.46,1.28.46,2.19c0,.82-.24,1.53-.72,2.13s-1.2,1.01-2.15,1.2v.05c.53.04,1.01.17,1.45.37.44.2.82.48,1.13.82s.56.75.74,1.21c.17.47.26.98.26,1.54,0,.92-.18,1.67-.53,2.26-.36.58-.8,1.04-1.34,1.37-.54.33-1.12.56-1.75.68-.63.12-1.21.18-1.76.18h-5.12v-16.04ZM244.57,195.4h3.1c.77,0,1.4-.09,1.88-.28.48-.19.86-.42,1.13-.69.27-.27.45-.56.54-.87.09-.31.13-.59.13-.85,0-.56-.09-1.02-.28-1.39-.19-.37-.44-.66-.76-.88s-.69-.37-1.11-.46-.87-.14-1.34-.14h-3.31v5.57ZM244.57,203.15h3.42c.88,0,1.58-.11,2.12-.32s.95-.48,1.24-.79.48-.65.58-1.01c.1-.36.15-.68.15-.96,0-.59-.11-1.1-.34-1.52-.23-.42-.52-.77-.88-1.03-.36-.26-.77-.46-1.24-.58-.46-.12-.93-.18-1.39-.18h-3.65v6.39Z"/><path class="cls-1" d="M248.2,205.01h-5.62v-17.04h5.12c.62,0,1.27.05,1.91.15.68.11,1.31.34,1.85.68.56.35,1.02.85,1.37,1.47.35.62.53,1.44.53,2.43,0,.93-.28,1.75-.83,2.44-.26.33-.58.6-.95.82.02.01.05.02.07.03.49.23.92.54,1.29.93.36.39.64.85.84,1.38.19.52.29,1.1.29,1.72,0,1.01-.2,1.85-.6,2.51-.4.65-.9,1.17-1.5,1.54-.59.36-1.23.62-1.92.75-.66.13-1.28.19-1.85.19ZM243.58,204.01h4.62c.51,0,1.07-.06,1.66-.17.56-.11,1.09-.32,1.58-.61.46-.29.86-.69,1.17-1.21.3-.5.46-1.17.46-1.99,0-.5-.08-.96-.23-1.37-.15-.4-.36-.76-.63-1.04-.27-.29-.6-.53-.98-.7-.31-.15-.65-.25-1.02-.3.33.13.65.3.93.5.43.31.77.71,1.03,1.2.26.49.4,1.08.4,1.76,0,.33-.06.7-.17,1.1-.12.43-.35.84-.69,1.21-.34.37-.82.68-1.42.92-.6.24-1.35.35-2.3.35h-3.92v-7.39h4.15c.43,0,.85.05,1.27.14v-.73l.4-.13c.84-.17,1.45-.51,1.86-1.02.41-.52.62-1.11.62-1.82,0-.82-.13-1.47-.4-1.94-.27-.47-.61-.85-1.03-1.11-.43-.27-.93-.46-1.48-.54-.6-.09-1.19-.14-1.76-.14h-4.12v15.04ZM245.07,202.65h2.92c.81,0,1.46-.09,1.94-.28.46-.18.82-.41,1.05-.66.23-.26.39-.53.47-.81.09-.31.13-.59.13-.83,0-.5-.09-.94-.28-1.28-.19-.35-.44-.64-.74-.86-.31-.23-.67-.39-1.07-.5-.42-.11-.84-.16-1.27-.16h-3.15v5.39ZM247.68,195.9h-3.6v-6.57h3.81c.5,0,.98.05,1.44.15.49.1.92.29,1.29.54.38.26.69.62.92,1.07.22.44.34.99.34,1.62,0,.3-.05.64-.15.99-.12.39-.34.75-.67,1.08-.32.32-.76.59-1.31.8-.55.21-1.22.32-2.06.32ZM245.07,194.9h2.6c.71,0,1.28-.08,1.7-.25.42-.16.74-.36.96-.58.21-.21.35-.43.42-.66.08-.26.11-.5.11-.71,0-.48-.08-.87-.23-1.17-.15-.3-.35-.53-.6-.7-.26-.18-.57-.31-.93-.39-.39-.08-.8-.12-1.23-.12h-2.81v4.57Z"/><path class="cls-1" d="M268.91,188.47h1.5v16.04h-1.5v-16.04Z"/><path class="cls-1" d="M270.91,205.01h-2.5v-17.04h2.5v17.04ZM269.41,204.01h.5v-15.04h-.5v15.04Z"/><path class="cls-1" d="M286.36,188.47h1.5v14.69h7.48v1.36h-8.97v-16.04Z"/><path class="cls-1" d="M295.84,205.01h-9.97v-17.04h2.5v14.69h7.48v2.36ZM286.86,204.01h7.97v-.36h-7.48v-14.69h-.5v15.04Z"/><path class="cls-1" d="M309.25,188.47h1.5v14.69h7.48v1.36h-8.97v-16.04Z"/><path class="cls-1" d="M318.72,205.01h-9.97v-17.04h2.5v14.69h7.48v2.36ZM309.75,204.01h7.97v-.36h-7.48v-14.69h-.5v15.04Z"/><path class="cls-1" d="M337.05,188.47h1.54l6.75,16.04h-1.68l-1.75-4.26h-8.5l-1.81,4.26h-1.56l7-16.04ZM337.76,190.1l-3.74,8.79h7.36l-3.63-8.79Z"/><path class="cls-1" d="M346.1,205.01h-2.76l-1.75-4.26h-7.83l-1.81,4.26h-2.66l7.44-17.04h2.2l7.17,17.04ZM344.01,204.01h.59l-6.33-15.04h-.43l4.3,10.42h-8.87l4.43-10.42h-.31l-6.57,15.04h.47l1.81-4.26h9.16l1.75,4.26ZM334.77,198.39h5.86l-2.88-7-2.98,7Z"/><path class="cls-1" d="M359.22,188.47h1.93l9.77,14.05h.04v-14.05h1.5v16.04h-1.93l-9.77-14.05h-.05v14.05h-1.5v-16.04Z"/><path class="cls-1" d="M372.95,205.01h-2.69l-9.05-13.02v13.02h-2.5v-17.04h2.69l9.05,13.02v-13.02h2.5v17.04ZM370.79,204.01h1.16v-15.04h-.5v14.05h-.76l-.19-.21-9.62-13.84h-1.16v15.04h.5v-14.05h.76l.19.21,9.62,13.84Z"/><path class="cls-1" d="M401.62,202c-.77,1.04-1.66,1.79-2.67,2.24-1.01.45-2.11.68-3.29.68s-2.35-.21-3.37-.62-1.89-1-2.62-1.74c-.72-.75-1.29-1.64-1.7-2.67-.41-1.03-.61-2.16-.61-3.39s.2-2.35.61-3.38c.41-1.03.98-1.91,1.7-2.66.72-.75,1.6-1.33,2.62-1.76s2.14-.63,3.37-.63c1.09,0,2.1.19,3.05.58s1.77,1.03,2.48,1.94l-1.22,1.02c-.5-.76-1.14-1.31-1.92-1.65-.78-.35-1.57-.52-2.39-.52-1.04,0-1.98.18-2.82.54-.84.36-1.55.86-2.14,1.5-.59.63-1.04,1.38-1.36,2.24-.32.86-.48,1.79-.48,2.79s.16,1.93.48,2.79c.32.86.77,1.61,1.36,2.24.59.63,1.3,1.13,2.14,1.5.84.36,1.78.54,2.82.54.41,0,.83-.05,1.27-.15.44-.1.86-.25,1.28-.45.42-.2.81-.46,1.19-.77.38-.31.71-.68,1-1.12l1.22.93Z"/><path class="cls-1" d="M395.66,205.42c-1.28,0-2.48-.22-3.55-.66-1.08-.44-2.02-1.06-2.79-1.86-.77-.79-1.37-1.74-1.81-2.84-.43-1.09-.65-2.29-.65-3.57s.22-2.48.65-3.56c.43-1.08,1.04-2.03,1.81-2.83.77-.79,1.71-1.42,2.79-1.87,2.04-.85,4.68-.92,6.79-.06,1.02.42,1.92,1.12,2.68,2.09l.3.38-2.02,1.69-.31-.47c-.45-.68-1.01-1.16-1.7-1.47-1.64-.74-3.45-.57-4.81.02-.77.33-1.43.8-1.97,1.38-.54.58-.96,1.28-1.26,2.08-.29.8-.44,1.68-.44,2.61s.15,1.81.44,2.61c.29.8.72,1.5,1.26,2.08.54.58,1.2,1.04,1.97,1.38,1.06.46,2.32.7,3.78.37.4-.09.79-.23,1.17-.41.38-.18.74-.42,1.1-.71.34-.27.64-.61.89-1.01l.29-.45,2.04,1.55-.29.4c-.82,1.11-1.79,1.92-2.87,2.4-1.08.48-2.25.72-3.49.72ZM395.66,188.56c-1.15,0-2.22.2-3.17.6-.95.39-1.77.95-2.45,1.64-.67.7-1.21,1.54-1.59,2.5-.38.96-.58,2.04-.58,3.19s.19,2.23.58,3.21c.38.97.92,1.81,1.59,2.51.67.69,1.5,1.24,2.45,1.63,1.87.76,4.32.82,6.26-.05.8-.36,1.53-.93,2.17-1.7l-.41-.31c-.24.3-.5.57-.79.8-.41.34-.85.62-1.29.83-.45.22-.91.39-1.39.49-1.67.37-3.14.12-4.4-.43-.9-.39-1.68-.93-2.31-1.61-.63-.68-1.12-1.49-1.46-2.41-.34-.91-.51-1.91-.51-2.96s.17-2.05.51-2.96c.34-.92.83-1.73,1.46-2.41.63-.68,1.41-1.22,2.31-1.62,1.61-.7,3.72-.87,5.62-.02.7.31,1.3.78,1.8,1.39l.43-.36c-.58-.64-1.24-1.12-1.96-1.41-.88-.36-1.84-.54-2.86-.54Z"/><path class="cls-1" d="M414.87,196.49c0-1.22.2-2.35.61-3.38.41-1.03.98-1.91,1.7-2.66.72-.75,1.6-1.33,2.62-1.76s2.14-.63,3.37-.63,2.35.21,3.37.63,1.89,1.01,2.62,1.76c.72.75,1.29,1.64,1.7,2.66.41,1.03.61,2.15.61,3.38s-.2,2.35-.61,3.39c-.41,1.03-.98,1.93-1.7,2.67-.72.75-1.6,1.33-2.62,1.74s-2.14.62-3.37.62-2.35-.21-3.37-.62-1.89-1-2.62-1.74c-.72-.75-1.29-1.64-1.7-2.67-.41-1.03-.61-2.16-.61-3.39ZM416.37,196.49c0,1,.16,1.93.48,2.79.32.86.77,1.61,1.36,2.24.59.63,1.3,1.13,2.14,1.5.84.36,1.78.54,2.82.54s1.98-.18,2.82-.54,1.55-.86,2.14-1.5c.59-.63,1.04-1.38,1.36-2.24.32-.86.48-1.79.48-2.79s-.16-1.93-.48-2.79-.77-1.61-1.36-2.24c-.59-.63-1.3-1.13-2.14-1.5s-1.78-.54-2.82-.54-1.98.18-2.82.54c-.84.36-1.55.86-2.14,1.5-.59.63-1.04,1.38-1.36,2.24-.32.86-.48,1.79-.48,2.79Z"/><path class="cls-1" d="M423.17,205.42c-1.28,0-2.48-.22-3.55-.66-1.08-.44-2.02-1.06-2.79-1.86-.77-.79-1.37-1.74-1.81-2.84-.43-1.09-.65-2.29-.65-3.57s.22-2.48.65-3.56c.43-1.08,1.04-2.03,1.81-2.83.77-.79,1.71-1.42,2.79-1.87,2.16-.89,4.96-.89,7.11,0,1.08.45,2.01,1.08,2.78,1.87.77.8,1.38,1.75,1.81,2.83.43,1.08.65,2.28.65,3.56s-.22,2.48-.65,3.57c-.43,1.09-1.04,2.05-1.81,2.84-.77.8-1.71,1.42-2.79,1.86-1.08.44-2.27.66-3.55.66ZM423.17,188.56c-1.15,0-2.22.2-3.17.6-.95.39-1.77.95-2.45,1.64-.67.7-1.21,1.54-1.59,2.5-.38.96-.58,2.04-.58,3.19s.19,2.23.58,3.21c.38.97.92,1.81,1.59,2.51.67.69,1.5,1.24,2.45,1.63,1.91.78,4.44.78,6.35,0,.95-.39,1.77-.93,2.45-1.63.68-.7,1.21-1.54,1.59-2.51.38-.97.58-2.05.58-3.2s-.19-2.23-.58-3.19c-.38-.96-.92-1.8-1.59-2.5-.67-.7-1.5-1.25-2.45-1.64-.96-.4-2.02-.6-3.17-.6ZM423.17,204.06c-1.11,0-2.12-.2-3.02-.58-.9-.39-1.68-.93-2.31-1.61-.63-.68-1.12-1.49-1.46-2.41-.34-.91-.51-1.91-.51-2.96s.17-2.05.51-2.96c.34-.92.83-1.73,1.46-2.41.63-.68,1.41-1.22,2.31-1.62,1.8-.78,4.25-.78,6.04,0,.9.39,1.68.93,2.31,1.62.63.68,1.12,1.49,1.46,2.41.34.91.51,1.91.51,2.96s-.17,2.05-.51,2.96c-.34.92-.83,1.74-1.46,2.41-.63.68-1.41,1.22-2.31,1.61-.9.39-1.91.58-3.02.58ZM423.17,189.92c-.97,0-1.85.17-2.62.5s-1.43.8-1.97,1.38c-.54.58-.96,1.28-1.26,2.08-.29.8-.44,1.68-.44,2.61s.15,1.81.44,2.61c.29.8.72,1.5,1.26,2.08.54.58,1.2,1.04,1.97,1.38,1.54.67,3.71.67,5.25,0,.77-.33,1.44-.8,1.97-1.38.54-.58.96-1.28,1.26-2.08.29-.8.44-1.68.44-2.61s-.15-1.81-.44-2.61c-.29-.8-.72-1.5-1.26-2.08-.54-.58-1.2-1.04-1.97-1.38-.77-.33-1.65-.5-2.62-.5Z"/><path class="cls-1" d="M457.77,198.37c0,.86-.1,1.68-.3,2.47-.2.79-.53,1.48-.98,2.09-.46.6-1.07,1.09-1.81,1.45-.75.36-1.67.54-2.75.54s-2-.18-2.75-.54c-.75-.36-1.35-.84-1.81-1.45s-.79-1.3-.98-2.09c-.2-.79-.3-1.61-.3-2.47v-9.9h1.5v9.52c0,.57.05,1.19.16,1.83.11.65.31,1.25.62,1.81.31.56.75,1.02,1.31,1.38s1.32.54,2.25.54,1.69-.18,2.26-.54,1.01-.82,1.31-1.38c.31-.56.52-1.16.62-1.81.11-.65.16-1.26.16-1.83v-9.52h1.5v9.9Z"/><path class="cls-1" d="M451.92,205.42c-1.16,0-2.16-.2-2.97-.59-.82-.39-1.49-.93-1.99-1.6-.5-.66-.86-1.42-1.07-2.27-.21-.82-.31-1.69-.31-2.59v-10.4h2.5v10.02c0,.54.05,1.13.15,1.75.09.59.29,1.14.57,1.65.27.49.64.88,1.15,1.2.48.31,1.15.46,1.98.46s1.5-.16,1.99-.46c.5-.32.88-.72,1.15-1.2.28-.51.47-1.05.57-1.65.1-.62.15-1.21.15-1.75v-10.02h2.5v10.4c0,.89-.1,1.76-.31,2.59-.21.85-.57,1.61-1.07,2.27-.51.67-1.18,1.2-2,1.6-.81.39-1.81.59-2.97.59ZM446.58,188.97v9.4c0,.82.09,1.61.28,2.35.18.72.48,1.36.9,1.91.41.54.96.98,1.63,1.3.67.33,1.53.49,2.53.49s1.86-.17,2.54-.49c.68-.33,1.22-.76,1.64-1.3.42-.55.72-1.19.9-1.91.19-.75.28-1.54.28-2.35v-9.4h-.5v9.02c0,.59-.06,1.24-.17,1.91-.12.71-.34,1.37-.68,1.98-.35.63-.84,1.15-1.48,1.56-.65.41-1.5.62-2.53.62s-1.88-.21-2.52-.62c-.64-.41-1.14-.93-1.48-1.56-.34-.61-.57-1.28-.68-1.98-.11-.68-.17-1.32-.17-1.91v-9.02h-.5Z"/><path class="cls-1" d="M473.43,188.47h4.22c.21,0,.5,0,.86.02.36.02.76.06,1.18.14.42.08.85.2,1.29.36.44.17.83.41,1.18.72.35.32.63.72.86,1.2s.34,1.07.34,1.77c0,.77-.13,1.41-.4,1.9s-.6.9-1,1.21-.84.54-1.32.69c-.49.15-.95.26-1.38.32l4.67,7.71h-1.7l-4.51-7.61h-2.79v7.61h-1.5v-16.04ZM474.93,195.54h3.17c.79,0,1.42-.1,1.92-.3.49-.2.87-.44,1.14-.72.27-.29.46-.6.56-.93s.15-.63.15-.91-.05-.58-.15-.91-.28-.64-.56-.93c-.27-.29-.65-.53-1.14-.72-.49-.2-1.13-.3-1.92-.3h-3.17v5.71Z"/><path class="cls-1" d="M484.81,205.01h-2.87l-4.51-7.61h-2v7.61h-2.5v-17.04h4.72c.22,0,.51,0,.88.02.4.02.81.07,1.25.14.45.08.92.21,1.38.39.49.19.94.46,1.34.82.4.36.72.82.98,1.36.26.54.39,1.21.39,1.98,0,.85-.15,1.57-.45,2.14-.29.56-.68,1.02-1.13,1.37-.44.34-.94.61-1.48.77-.25.08-.49.14-.73.2l4.75,7.85ZM482.51,204.01h.53l-4.6-7.6.75-.1c.41-.06.85-.16,1.3-.3.42-.13.82-.34,1.17-.61.34-.27.63-.62.86-1.05.22-.42.34-.99.34-1.67,0-.62-.1-1.14-.29-1.56-.2-.42-.45-.77-.75-1.04-.3-.27-.64-.48-1.02-.63-.41-.16-.81-.27-1.2-.34-.39-.07-.76-.11-1.11-.13-.35-.01-.63-.02-.84-.02h-3.72v15.04h.5v-7.61h3.57l4.51,7.61ZM478.1,196.04h-3.67v-6.71h3.67c.84,0,1.55.11,2.1.33.56.22,1,.51,1.32.85.33.34.55.73.67,1.13.11.38.17.73.17,1.05s-.06.67-.17,1.05c-.12.41-.35.79-.67,1.13-.32.34-.77.62-1.32.85-.55.22-1.24.33-2.1.33ZM475.43,195.04h2.67c.72,0,1.3-.09,1.73-.26.42-.17.75-.37.97-.6.22-.23.36-.47.44-.73.08-.29.13-.54.13-.76s-.04-.48-.13-.77c-.08-.26-.22-.5-.44-.73s-.54-.43-.97-.6c-.43-.17-1.01-.26-1.73-.26h-2.67v4.71Z"/><path class="cls-1" d="M502.12,189.83h-5.48v-1.36h12.46v1.36h-5.48v14.69h-1.5v-14.69Z"/><path class="cls-1" d="M504.12,205.01h-2.5v-14.68h-5.48v-2.36h13.46v2.36h-5.48v14.68ZM502.62,204.01h.5v-14.68h5.48v-.36h-11.46v.36h5.48v14.68Z"/><path class="cls-1" d="M78.65,0C35.56,0,.63,34.93.63,78.02s34.93,78.02,78.02,78.02,78.02-34.93,78.02-78.02S121.75,0,78.65,0ZM153.22,75.04l-18.64-8.05,15.11-10.69,3.53,18.74ZM134.58,64.59l6.21-26.97,8.9,17.26-15.11,9.71ZM122.43,20.78l18.36,15.53-25.28,4.09,6.92-19.63ZM140.36,39.49l-9.6,23.55-15.25-21.32,24.85-2.23ZM125.82,59.23l-11.86-2.93-1.69-14.58,13.56,17.51ZM111.56,54.89l-6.78-3.78,5.65-6.71,1.13,10.49ZM102.38,36.78l5.79,9.04-5.79,1.27v-10.31ZM100.83,40.73l.85,4.52h-3.67l2.82-4.52ZM113.96,62.48l-5.79,12.57-13.41-3.11c1.55-.99,19.2-9.46,19.2-9.46ZM94.76,75.04l10.52.56-11.37,4.52.85-5.08ZM80.35,5.99l-9.46,25.91-8.47-24.64,17.93-1.27ZM61.29,97.64l-19.63-7.77,2.82-4.02,16.8,11.79ZM47.31,48.36l7.63,2.91-5.93,2.31-1.69-5.22ZM60.3,44.4l-12.99,2.68,8.75-12.85,4.24,10.17ZM52.11,31.27l-4.8,13.98-1.41-13.98h6.21ZM41.52,62.48l-5.08,3.2,8.05-23.95-2.97,20.76ZM32.48,66.85l-15.11,6.78,13.13-48.57,1.98,41.8ZM8.34,56.3l20.19-31.25-13.7,45.89-6.5-14.65ZM17.38,75.04l5.93-2.97.99,10.59-6.92-7.63ZM26.98,84.36l-.71-6,7.06,9.53-6.35-3.53ZM33.33,36.78l8.33,8.47-6.92,21.6-1.41-30.08ZM50.06,146.92l-2.75-19.91,5.51,10.59-2.75,9.32ZM36.44,102.86l3.25-6.21,15.32,39.82-18.57-33.61ZM57.2,132.51l-17.51-37.7,24.43,25.98-6.92,11.72ZM66.52,120.79l-30.08-30.92,37.14,14.83-7.06,16.1ZM73.58,30.42s9.18-24.71,9.18-25.13l7.77,15.82-16.94,9.32ZM93.06,84.22l26.55-15.39c-.42.42-8.05,25.98-8.05,25.98l-18.5-10.59ZM124.55,131.81l-9.04-30.78h19.63l-10.59,30.78ZM113.96,98.34l8.19-29.51,12.99,29.51h-21.18ZM138.11,102.86l-10.17-34.03,15.96,22.91-5.79,11.12ZM142.34,87.89l-8.75-19.06,17.51,7.48-8.75,11.58Z"/><path class="cls-1" d="M177.23,25.69c.06-.51.25-.95.59-1.32.34-.37.82-.55,1.44-.55h14.69c1.05,0,1.73.54,2.04,1.61l11.55,38.55,11.63-38.55c.4-1.07,1.12-1.61,2.17-1.61h14.52c.51,0,.97.18,1.38.53s.64.8.7,1.34c.99,9.96,2,19.85,3.04,29.65,1.03,9.81,2.04,19.69,3.04,29.65v.21c0,1.1-.62,1.66-1.87,1.66h-12.01c-1.3,0-1.98-.62-2.04-1.87l-3.69-32.82-9.55,33.03c-.06.28-.26.62-.61,1.02-.36.4-.7.6-1.04.6h-11.17c-.34,0-.7-.19-1.08-.57-.38-.38-.59-.73-.61-1.04l-9.55-32.94-3.69,32.73c-.06,1.25-.75,1.87-2.08,1.87h-12.02c-1.22,0-1.82-.62-1.82-1.87l6.07-59.31Z"/><path class="cls-1" d="M306.33,83.72c0,.48-.08.94-.25,1.38s-.45.78-.85,1.04c-.31.31-.68.51-1.1.6s-.79.13-1.1.13h-8.36c-.6,0-1.08-.08-1.44-.23-.37-.16-.67-.37-.89-.66-.23-.28-.42-.63-.57-1.04-.16-.41-.32-.86-.49-1.34l-.55-1.91c-.76.76-1.63,1.51-2.61,2.25-.98.74-2.05,1.39-3.23,1.97-1.17.58-2.43,1.05-3.78,1.4-1.34.35-2.74.53-4.18.53-2.58,0-5.05-.32-7.41-.98-2.36-.65-4.57-1.58-6.62-2.78s-3.91-2.65-5.58-4.33c-1.67-1.68-3.11-3.56-4.31-5.63-1.2-2.07-2.13-4.29-2.78-6.69-.65-2.39-.98-4.89-.98-7.49,0-3.93.72-7.59,2.16-10.97,1.44-3.38,3.41-6.33,5.9-8.83,2.49-2.51,5.42-4.47,8.79-5.9,3.37-1.43,6.98-2.14,10.83-2.14,1.75,0,3.39.2,4.9.59,1.51.4,2.9.93,4.16,1.61,1.26.68,2.4,1.49,3.42,2.44,1.02.95,1.91,1.97,2.67,3.08l1.23-3.86c.28-.71.52-1.28.7-1.72s.38-.76.6-.98c.21-.21.47-.35.78-.43.31-.07.75-.11,1.32-.11h6.32c.31,0,.68.04,1.1.13s.79.28,1.1.59c.4.31.68.67.85,1.06.17.4.25.85.25,1.36v47.85ZM264.51,59.95c0,1.87.29,3.62.87,5.24.58,1.63,1.41,3.04,2.48,4.22,1.07,1.19,2.37,2.13,3.88,2.82,1.51.69,3.19,1.04,5.03,1.04s3.66-.35,5.29-1.04c1.63-.69,3.04-1.63,4.25-2.82,1.2-1.19,2.14-2.6,2.82-4.22.68-1.63,1.02-3.38,1.02-5.24s-.34-3.54-1.02-5.18c-.68-1.64-1.62-3.08-2.82-4.33-1.2-1.24-2.62-2.23-4.25-2.95-1.63-.72-3.39-1.08-5.29-1.08s-3.52.36-5.03,1.08c-1.51.72-2.81,1.71-3.88,2.95-1.08,1.25-1.9,2.69-2.48,4.33s-.87,3.37-.87,5.18Z"/><path class="cls-1" d="M316.48,14.78c0-1.19.25-2.03.76-2.53.51-.5,1.3-.74,2.38-.74h9.85c.99,0,1.79.25,2.4.74s.91,1.34.91,2.53v8.28c0,.34-.08.71-.23,1.1-.16.4-.37.78-.66,1.15-.28.37-.63.67-1.04.91-.41.24-.87.36-1.38.36h-9.85c-2.1,0-3.14-1.17-3.14-3.52v-8.28ZM316.48,36.26c0-.91.25-1.68.76-2.33.51-.65,1.3-.98,2.38-.98h9.72c.34,0,.71.08,1.1.23.4.16.76.38,1.1.68.34.3.63.64.87,1.04.24.4.36.85.36,1.36v47.34c0,1.08-.3,1.89-.89,2.44-.59.55-1.44.83-2.55.83h-9.72c-2.1,0-3.14-1.09-3.14-3.27v-47.34Z"/><path class="cls-1" d="M351.04,70.09c.76.76,1.59,1.41,2.48,1.93s1.75.95,2.57,1.27c.82.33,1.54.56,2.16.7.62.14,1.05.21,1.27.21.54,0,1.22-.02,2.06-.06.83-.04,1.63-.17,2.4-.38.76-.21,1.42-.56,1.97-1.04.55-.48.83-1.16.83-2.04,0-.79-.16-1.42-.47-1.89-.31-.47-.76-.86-1.36-1.19-.6-.32-1.32-.62-2.19-.87-.86-.25-1.83-.55-2.91-.89-3.4-.91-6.2-2-8.41-3.27-2.21-1.27-3.96-2.7-5.24-4.27-1.29-1.57-2.19-3.26-2.7-5.07-.51-1.81-.76-3.72-.76-5.73,0-2.35.47-4.49,1.4-6.41.93-1.92,2.26-3.57,3.99-4.95,1.73-1.37,3.79-2.43,6.2-3.18,2.41-.75,5.08-1.12,8.02-1.12,1.78,0,3.45.15,5.01.45,1.56.3,3.04.76,4.46,1.4,1.42.64,2.79,1.46,4.14,2.46,1.34,1,2.68,2.2,4.01,3.59.48.57.73,1.1.74,1.59.01.5-.3,1.03-.95,1.59-1.1.91-2.16,1.8-3.16,2.67-1.01.88-2.05,1.85-3.12,2.93-.34.28-.68.46-1.02.53s-.67.06-.98-.02c-.31-.08-.61-.23-.89-.42-.28-.2-.54-.44-.76-.72-.99-1.1-2.12-1.85-3.4-2.23-1.27-.38-2.46-.57-3.57-.57-1.39,0-2.49.24-3.31.72-.82.48-1.2,1.22-1.15,2.21.06.74.33,1.31.83,1.72.5.41,1.1.74,1.83,1,.72.25,1.49.46,2.29.62.81.16,1.55.33,2.23.53,2.55.82,4.88,1.71,7,2.67s3.96,2.14,5.52,3.54c1.56,1.4,2.77,3.08,3.63,5.03.86,1.95,1.3,4.33,1.3,7.13s-.56,5.31-1.68,7.51c-1.12,2.21-2.65,4.06-4.61,5.56-1.95,1.5-4.27,2.65-6.94,3.44s-5.55,1.19-8.64,1.19c-1.75,0-3.54-.16-5.35-.47-1.81-.31-3.57-.81-5.26-1.51s-3.31-1.58-4.84-2.67c-1.53-1.09-2.89-2.41-4.08-3.97-.31-.4-.54-.81-.7-1.25-.16-.44-.23-.87-.21-1.3.01-.43.1-.81.25-1.17.16-.35.4-.66.74-.91l5.48-5.48c.68-.57,1.28-.76,1.8-.59.52.17,1.2.65,2.02,1.44Z"/><path class="cls-1" d="M390.47,59.95c0-2.6.33-5.11,1-7.51.67-2.41,1.6-4.63,2.8-6.69,1.2-2.05,2.65-3.92,4.33-5.6s3.56-3.12,5.63-4.31,4.29-2.11,6.69-2.76c2.39-.65,4.89-.98,7.49-.98,3.85,0,7.46.71,10.85,2.14s6.33,3.4,8.83,5.9c2.51,2.5,4.49,5.45,5.94,8.83,1.46,3.38,2.19,7.04,2.19,10.97,0,2.6-.33,5.1-1,7.49-.66,2.39-1.6,4.62-2.8,6.69-1.2,2.07-2.65,3.94-4.33,5.63-1.68,1.68-3.56,3.13-5.63,4.33-2.07,1.2-4.28,2.13-6.64,2.78-2.36.65-4.83.98-7.41.98s-5.1-.32-7.49-.98c-2.39-.65-4.62-1.58-6.69-2.78s-3.94-2.65-5.63-4.33c-1.68-1.68-3.13-3.56-4.33-5.63-1.2-2.07-2.14-4.29-2.8-6.69-.66-2.39-1-4.89-1-7.49ZM405.97,59.95c0,1.87.29,3.62.87,5.24.58,1.63,1.4,3.04,2.46,4.22,1.06,1.19,2.35,2.13,3.86,2.82,1.51.69,3.22,1.04,5.12,1.04s3.5-.35,4.99-1.04c1.49-.69,2.75-1.63,3.78-2.82,1.03-1.19,1.83-2.6,2.38-4.22.55-1.63.83-3.38.83-5.24s-.28-3.54-.83-5.18c-.55-1.64-1.34-3.08-2.38-4.33-1.03-1.24-2.29-2.23-3.78-2.95s-3.15-1.08-4.99-1.08-3.6.36-5.12,1.08-2.8,1.71-3.86,2.95c-1.06,1.25-1.88,2.69-2.46,4.33s-.87,3.37-.87,5.18Z"/><path class="cls-1" d="M455.77,33.71c.37-.31.76-.51,1.17-.59.41-.08.8-.13,1.17-.13h6.41c.51,0,.95.09,1.32.28.37.18.68.43.93.74s.46.66.62,1.06c.16.4.3.8.45,1.23l.89,3.73c.42-.87,1.11-1.78,2.06-2.71.95-.93,2.12-1.78,3.52-2.54,1.4-.76,3.02-1.39,4.86-1.88s3.89-.74,6.16-.74c3.23,0,6.11.62,8.64,1.86,2.53,1.24,4.68,2.94,6.45,5.08s3.11,4.65,4.03,7.52c.92,2.87,1.38,5.93,1.38,9.18v27.81c0,1.08-.23,1.89-.7,2.44s-1.21.83-2.23.83h-9.81c-1.22,0-2.05-.2-2.5-.61-.45-.41-.68-1.21-.68-2.4v-27.64c0-1.22-.28-2.37-.83-3.46-.55-1.09-1.28-2.05-2.19-2.89-.91-.83-1.93-1.49-3.08-1.97-1.15-.48-2.31-.72-3.5-.72-1.02,0-2.06.23-3.12.68-1.06.45-2.04,1.08-2.93,1.89s-1.64,1.76-2.25,2.84c-.61,1.09-.96,2.27-1.04,3.54v27.6c0,.48-.09.96-.28,1.44-.18.48-.46.85-.83,1.1-.37.23-.72.38-1.04.47s-.7.13-1.12.13h-9.6c-1.22,0-2.1-.3-2.63-.89-.54-.59-.81-1.39-.81-2.38v-47.48c0-.54.12-1.03.36-1.48.24-.45.57-.8,1-1.06l-.25.13Z"/><path class="cls-1" d="M173.61,99.37c0-.51.24-.76.73-.76h7.41c1.13,0,2.21.14,3.24.41,1.02.27,1.98.67,2.85,1.17.88.51,1.67,1.12,2.38,1.84.71.72,1.31,1.52,1.82,2.39.5.87.89,1.81,1.17,2.82.28,1.01.41,2.06.41,3.16s-.14,2.13-.42,3.13-.68,1.94-1.19,2.81c-.51.87-1.13,1.66-1.85,2.38s-1.52,1.32-2.39,1.83c-.88.51-1.82.9-2.84,1.18s-2.07.42-3.17.42h-7.41c-.19,0-.36-.04-.51-.13-.15-.09-.22-.27-.22-.53v-22.13ZM181.67,119.13c1.29,0,2.48-.24,3.57-.71,1.09-.48,2.03-1.12,2.82-1.93s1.4-1.75,1.85-2.83c.45-1.08.67-2.22.67-3.43,0-1.29-.23-2.46-.7-3.52-.47-1.06-1.1-1.96-1.9-2.71-.8-.75-1.73-1.33-2.8-1.74-1.07-.41-2.21-.62-3.43-.62h-5.09v17.49h5.01Z"/><path class="cls-1" d="M214.01,98.61c.49,0,.73.25.73.76v1.57c0,.2-.06.37-.18.52-.12.15-.31.22-.58.22h-12.79v6.52h10.06c.19,0,.35.05.49.17.14.11.2.3.2.56v1.62c0,.19-.06.36-.17.51-.12.15-.29.22-.52.22h-10.06v7.8h12.85c.49,0,.73.25.73.75v1.63c0,.47-.23.7-.7.7h-15.26c-.47,0-.7-.22-.7-.67v-22.16c0-.49.23-.73.7-.73h15.2Z"/><path class="cls-1" d="M190.93,149.27c.2,0,.38.07.52.2s.22.31.22.55v1.63c0,.19-.07.36-.2.49-.14.14-.32.21-.54.21h-14.35c-.5,0-.74-.23-.74-.7v-22.16c0-.19.07-.35.2-.49.14-.14.33-.21.57-.21h1.74c.21,0,.39.06.53.17s.21.29.21.52v19.78h11.83Z"/><path class="cls-1" d="M196.45,151.76c-.08.18-.19.32-.34.43-.15.11-.33.16-.56.16h-1.79c-.52,0-.78-.18-.78-.56,0-.07,0-.13,0-.18,0-.05.01-.09.03-.14.01-.04.02-.08.03-.11l9.74-21.98c.02-.05.05-.11.08-.18s.08-.13.13-.19.14-.11.24-.15c.11-.04.25-.06.43-.06h1.11c.17,0,.31.02.41.06.11.04.19.09.24.15s.1.12.13.19.06.13.08.18l9.65,21.98.03.16c.01.05.02.1.04.15,0,.05.02.09.02.12,0,.37-.26.56-.78.56h-1.79c-.22,0-.41-.05-.56-.16-.15-.11-.26-.25-.34-.43l-1.86-4.36h-11.85c-.39.94-.75,1.79-1.08,2.55s-.57,1.36-.73,1.81ZM199.61,144.32h9.2l-4.56-10.85-4.64,10.85Z"/><path class="cls-1" d="M227.63,102.55c0-.48.12-.85.37-1.14.25-.28.62-.43,1.12-.43h21.72c1.56,0,3.04.22,4.42.65s2.65,1.02,3.81,1.78c1.16.76,2.2,1.67,3.13,2.72.93,1.05,1.72,2.19,2.36,3.42.65,1.22,1.14,2.51,1.48,3.86s.51,2.71.51,4.09c0,2.04-.37,4.03-1.1,5.98-.74,1.95-1.78,3.68-3.14,5.2-1.36,1.52-2.99,2.75-4.89,3.69-1.9.94-4.01,1.42-6.32,1.44h-10.3v16.18c0,.97-.52,1.46-1.56,1.46h-10.09c-.45,0-.81-.12-1.09-.36-.27-.24-.41-.61-.41-1.1v-47.45ZM253.22,117.44c0-.68-.12-1.36-.36-2.04-.24-.68-.58-1.29-1.04-1.82-.45-.53-1-.97-1.65-1.31-.65-.34-1.38-.51-2.19-.51h-7.21v11.35h7.21c.82,0,1.55-.16,2.21-.49.66-.33,1.21-.75,1.65-1.27.44-.52.78-1.12,1.02-1.8.24-.68.36-1.38.36-2.11Z"/><path class="cls-1" d="M272.53,98.07c0-.73.18-1.34.54-1.83.36-.5.98-.75,1.87-.75h8.33c.23,0,.46.06.71.19.25.12.48.3.7.53.21.23.4.5.54.82s.22.67.22,1.05v50.78c0,.86-.24,1.51-.73,1.95-.49.44-1.12.66-1.89.66h-7.89c-.88,0-1.51-.22-1.87-.66-.36-.44-.54-1.09-.54-1.95v-50.78Z"/><path class="cls-1" d="M338.02,148.95c0,.38-.07.75-.2,1.1-.14.35-.36.63-.68.83-.25.25-.54.41-.88.48-.34.07-.63.1-.88.1h-6.7c-.48,0-.86-.06-1.16-.19s-.53-.3-.71-.53c-.18-.23-.33-.5-.46-.83-.12-.33-.26-.69-.39-1.07l-.44-1.53c-.61.61-1.31,1.21-2.09,1.8-.78.59-1.64,1.12-2.58,1.58-.94.46-1.95.84-3.03,1.12s-2.19.42-3.35.42c-2.06,0-4.04-.26-5.93-.78-1.89-.52-3.66-1.26-5.3-2.23-1.64-.96-3.13-2.12-4.47-3.47-1.34-1.35-2.49-2.85-3.45-4.5s-1.7-3.44-2.23-5.35c-.52-1.91-.78-3.91-.78-6,0-3.15.58-6.08,1.73-8.79,1.16-2.71,2.73-5.06,4.72-7.07,1.99-2.01,4.34-3.58,7.04-4.72,2.7-1.14,5.59-1.72,8.67-1.72,1.4,0,2.71.16,3.93.48s2.32.75,3.33,1.29c1.01.54,1.92,1.19,2.74,1.95.82.76,1.53,1.58,2.14,2.46l.99-3.09c.23-.57.41-1.03.56-1.38s.31-.61.48-.78c.17-.17.38-.28.63-.34.25-.06.6-.08,1.05-.08h5.06c.25,0,.54.03.88.1.34.07.63.23.88.48.32.25.54.53.68.85s.2.68.2,1.09v38.31ZM304.55,129.91c0,1.5.23,2.9.7,4.2.46,1.3,1.13,2.43,1.99,3.38.86.95,1.9,1.7,3.11,2.26s2.55.83,4.03.83,2.93-.28,4.23-.83c1.3-.56,2.43-1.31,3.4-2.26.96-.95,1.72-2.08,2.26-3.38.54-1.3.81-2.7.81-4.2s-.27-2.83-.81-4.15-1.3-2.47-2.26-3.47c-.96-1-2.1-1.78-3.4-2.36-1.3-.58-2.71-.87-4.23-.87s-2.82.29-4.03.87-2.25,1.37-3.11,2.36-1.52,2.15-1.99,3.47-.7,2.7-.7,4.15Z"/><path class="cls-1" d="M347.07,108.91c.29-.25.61-.41.93-.48.33-.07.64-.1.93-.1h5.13c.41,0,.76.07,1.05.22s.54.35.75.59c.2.25.37.53.49.85s.24.64.36.98l.71,2.98c.34-.7.89-1.42,1.65-2.17.76-.75,1.7-1.42,2.82-2.03s2.42-1.11,3.89-1.51c1.47-.39,3.12-.59,4.93-.59,2.58,0,4.89.5,6.92,1.49,2.03.99,3.75,2.35,5.17,4.07s2.49,3.72,3.23,6.02c.74,2.3,1.1,4.75,1.1,7.35v22.26c0,.86-.19,1.51-.56,1.95s-.97.66-1.78.66h-7.85c-.97,0-1.64-.16-2.01-.49-.36-.33-.54-.97-.54-1.92v-22.13c0-.97-.22-1.9-.66-2.77-.44-.87-1.03-1.64-1.75-2.31-.73-.67-1.55-1.19-2.47-1.58-.92-.38-1.85-.58-2.8-.58-.81,0-1.65.18-2.5.54s-1.63.87-2.35,1.51c-.71.65-1.31,1.41-1.8,2.28-.49.87-.76,1.82-.83,2.84v22.09c0,.38-.07.77-.22,1.15-.15.39-.37.68-.66.88-.29.18-.57.31-.83.37-.26.07-.56.1-.9.1h-7.68c-.97,0-1.68-.24-2.11-.71s-.65-1.11-.65-1.9v-38.01c0-.43.1-.82.29-1.19.19-.36.46-.64.8-.85l-.2.1Z"/><path class="cls-1" d="M432.31,146.3c-1.99,1.84-4.24,3.27-6.73,4.3s-5.13,1.55-7.92,1.55c-3.1,0-6.04-.57-8.8-1.7-2.76-1.13-5.19-2.7-7.27-4.71-2.09-2.01-3.74-4.37-4.96-7.09s-1.84-5.68-1.84-8.87c0-1.99.24-3.93.73-5.79.49-1.87,1.18-3.62,2.07-5.25.89-1.63,1.98-3.13,3.26-4.5,1.28-1.37,2.71-2.54,4.3-3.52s3.31-1.73,5.17-2.28c1.86-.54,3.82-.81,5.88-.81,1.88,0,3.7.25,5.47.75,1.77.5,3.43,1.2,4.98,2.11s2.97,1.99,4.27,3.26c1.29,1.27,2.4,2.66,3.33,4.16.93,1.51,1.65,3.12,2.16,4.83.51,1.71.77,3.47.77,5.29,0,1.18-.02,2.14-.05,2.89s-.21,1.34-.53,1.78c-.32.44-.85.75-1.58.92s-1.82.25-3.24.25h-24.47c.23,1.45.69,2.66,1.38,3.64.69.97,1.49,1.75,2.4,2.33s1.87.99,2.89,1.24c1.02.25,1.98.37,2.89.37.82,0,1.66-.08,2.52-.25.86-.17,1.69-.4,2.5-.68.81-.28,1.54-.61,2.21-.99.67-.37,1.21-.76,1.62-1.17.36-.29.67-.52.93-.66.26-.15.54-.22.83-.22s.6.1.9.31.65.5,1.04.88l3.6,4.08c.25.29.41.56.48.8.07.24.1.48.1.73,0,.45-.12.85-.37,1.17s-.54.62-.88.87ZM415.96,117.99c-.88,0-1.74.17-2.57.53-.83.35-1.6.82-2.33,1.41s-1.38,1.26-1.95,2.01c-.58.75-1.05,1.51-1.41,2.28h17.37c-.48-.88-.99-1.7-1.55-2.45-.56-.75-1.19-1.4-1.9-1.97s-1.53-1.01-2.45-1.33-1.99-.48-3.21-.48ZM422.49,101.7c.04.2.1.45.17.75.07.29.1.57.1.82s-.06.46-.19.65c-.12.18-.36.27-.7.27h-7.44c-.43,0-.78-.11-1.04-.34-.26-.23-.53-.59-.8-1.09l-3.33-7.31c-.11-.25-.19-.5-.24-.76-.05-.26-.04-.49.02-.7.06-.2.17-.37.34-.51s.42-.2.77-.2h8.77c.38,0,.75.11,1.1.32.35.22.58.58.7,1.1l1.77,7Z"/><path class="cls-1" d="M444.41,101.57c0-.7.23-1.23.7-1.58s1.13-.69,1.99-1l7.72-2.68c.11-.02.22-.03.32-.03h.29c.84,0,1.4.24,1.68.73.28.49.43,1.13.43,1.92l-.04,9.35h4.66c.73,0,1.31.22,1.77.65.45.43.68,1.08.68,1.94v6.56c0,.95-.23,1.65-.68,2.09s-1.04.66-1.77.66h-4.66l.04,28.69c0,.86-.25,1.51-.75,1.95-.5.44-1.19.66-2.07.66h-7.68c-1.74,0-2.62-.87-2.62-2.62l-.03-28.69h-3.5c-1.75,0-2.62-.92-2.62-2.75v-6.56c0-1.72.87-2.58,2.62-2.58h3.5l.03-6.7Z"/><path class="cls-1" d="M505.86,146.3c-1.99,1.84-4.24,3.27-6.73,4.3s-5.13,1.55-7.92,1.55c-3.1,0-6.04-.57-8.8-1.7-2.76-1.13-5.19-2.7-7.27-4.71s-3.74-4.37-4.96-7.09c-1.22-2.72-1.83-5.68-1.83-8.87,0-1.99.24-3.93.73-5.79.49-1.87,1.18-3.62,2.07-5.25.89-1.63,1.98-3.13,3.26-4.5,1.28-1.37,2.71-2.54,4.3-3.52,1.58-.97,3.31-1.73,5.17-2.28,1.86-.54,3.82-.81,5.88-.81,1.88,0,3.71.25,5.47.75,1.77.5,3.43,1.2,4.98,2.11,1.55.91,2.97,1.99,4.27,3.26,1.29,1.27,2.4,2.66,3.33,4.16.93,1.51,1.65,3.12,2.16,4.83.51,1.71.77,3.47.77,5.29,0,1.18-.02,2.14-.05,2.89s-.21,1.34-.53,1.78c-.32.44-.85.75-1.58.92-.74.17-1.82.25-3.25.25h-24.47c.23,1.45.69,2.66,1.38,3.64.69.97,1.49,1.75,2.4,2.33s1.87.99,2.89,1.24c1.02.25,1.98.37,2.89.37.81,0,1.65-.08,2.51-.25s1.69-.4,2.5-.68c.81-.28,1.54-.61,2.21-.99.67-.37,1.21-.76,1.61-1.17.36-.29.67-.52.93-.66s.54-.22.83-.22.6.1.9.31.65.5,1.04.88l3.6,4.08c.25.29.41.56.48.8.07.24.1.48.1.73,0,.45-.12.85-.37,1.17-.25.33-.54.62-.88.87ZM489.51,117.99c-.88,0-1.74.17-2.57.53-.83.35-1.6.82-2.33,1.41s-1.38,1.26-1.95,2.01c-.58.75-1.05,1.51-1.41,2.28h17.37c-.48-.88-.99-1.7-1.55-2.45s-1.19-1.4-1.9-1.97-1.53-1.01-2.45-1.33-1.99-.48-3.21-.48Z"/></svg>