<svg width="35" height="28" viewBox="0 0 35 28" fill="none" xmlns="http://www.w3.org/2000/svg">
<path fill-rule="evenodd" clip-rule="evenodd" d="M1.42881 1.43288C2.34147 0.513828 3.5764 0 4.86121 0H30.1388C31.4236 0 32.6585 0.513828 33.5712 1.43288C34.4843 2.3524 34.9999 3.60255 34.9999 4.90909V6.70712C35 6.71978 35 6.73243 34.9999 6.74507V23.0909C34.9999 24.3974 34.4843 25.6476 33.5712 26.5671C32.6585 27.4862 31.4236 28 30.1388 28H4.86121C3.5764 28 2.34147 27.4862 1.42881 26.5671C0.51568 25.6476 0.000138803 24.3974 0.000138803 23.0909V6.74507C-4.61187e-05 6.73243 -4.64167e-05 6.71977 0.000138803 6.70712V4.90909C0.000138803 3.60255 0.51568 2.3524 1.42881 1.43288ZM2.50012 9.09091V23.0909C2.50012 23.7132 2.74548 24.3129 3.18677 24.7573C3.62853 25.2021 4.23058 25.4545 4.86121 25.4545H30.1388C30.7694 25.4545 31.3715 25.2021 31.8132 24.7573C32.2545 24.3129 32.4999 23.7132 32.4999 23.0909V9.09091L20.1926 17.3532C20.1925 17.3533 20.1927 17.3531 20.1926 17.3532C19.3942 17.8895 18.4571 18.1751 17.5 18.1751C16.5429 18.1751 15.6061 17.8897 14.8078 17.3535C14.8077 17.3534 14.8079 17.3535 14.8078 17.3535L2.50012 9.09091ZM32.4999 6.04196L18.8161 15.2284C18.4277 15.4893 17.9695 15.6296 17.5 15.6296C17.0305 15.6296 16.5727 15.4895 16.1843 15.2286L2.50012 6.04196V4.90909C2.50012 4.28678 2.74548 3.68708 3.18677 3.24271C3.62853 2.79786 4.23058 2.54545 4.86121 2.54545H30.1388C30.7694 2.54545 31.3715 2.79786 31.8132 3.24271C32.2545 3.68708 32.4999 4.28678 32.4999 4.90909V6.04196Z" fill="white"/>
</svg>
