<svg width="21" height="20" viewBox="0 0 21 20" xmlns="http://www.w3.org/2000/svg">
<path d="M18.8925 0H2.1075C1.22 0 0.5 0.72 0.5 1.6075V18.3925C0.5 19.28 1.22 20 2.1075 20H18.8925C19.78 20 20.5 19.28 20.5 18.3925V1.6075C20.5 0.72 19.78 0 18.8925 0ZM18.8925 18.4C7.6975 18.3975 2.1 18.395 2.1 18.3925C2.1025 7.1975 2.105 1.6 2.1075 1.6C13.3025 1.6025 18.9 1.605 18.9 1.6075C18.8975 12.8025 18.895 18.4 18.8925 18.4ZM3.465 7.4975H6.4325V17.0425H3.465V7.4975ZM4.95 6.1925C5.8975 6.1925 6.67 5.4225 6.67 4.4725C6.67 4.24663 6.62551 4.02296 6.53907 3.81428C6.45264 3.6056 6.32594 3.41599 6.16622 3.25628C6.00651 3.09656 5.8169 2.96987 5.60822 2.88343C5.39954 2.79699 5.17587 2.7525 4.95 2.7525C4.72413 2.7525 4.50046 2.79699 4.29178 2.88343C4.0831 2.96987 3.89349 3.09656 3.73378 3.25628C3.57406 3.41599 3.44737 3.6056 3.36093 3.81428C3.27449 4.02296 3.23 4.24663 3.23 4.4725C3.2275 5.4225 3.9975 6.1925 4.95 6.1925ZM11.2575 12.32C11.2575 11.075 11.495 9.87 13.0375 9.87C14.5575 9.87 14.58 11.2925 14.58 12.4V17.0425H17.545V11.8075C17.545 9.2375 16.99 7.26 13.9875 7.26C12.545 7.26 11.5775 8.0525 11.18 8.8025H11.14V7.4975H8.2925V17.0425H11.2575V12.32Z"/>
</svg>
