<svg width="29" height="20" viewBox="0 0 29 20" xmlns="http://www.w3.org/2000/svg">
<path d="M14.5 0C15.697 0 16.9248 0.0275001 18.1148 0.0725001L19.5204 0.1325L20.8658 0.20375L22.1258 0.28L23.2766 0.36C24.5257 0.444864 25.7011 0.920543 26.5959 1.70325C27.4908 2.48596 28.0475 3.52549 28.1682 4.63875L28.2242 5.17L28.3292 6.3075C28.4272 7.48625 28.5 8.77125 28.5 10C28.5 11.2287 28.4272 12.5138 28.3292 13.6925L28.2242 14.83L28.1682 15.3612C28.0475 16.4747 27.4905 17.5144 26.5954 18.2971C25.7003 19.0799 24.5245 19.5554 23.2752 19.64L22.1272 19.7188L20.8672 19.7962L19.5204 19.8675L18.1148 19.9275C16.9106 19.9741 15.7054 19.9982 14.5 20C13.2946 19.9982 12.0894 19.9741 10.8852 19.9275L9.4796 19.8675L8.1342 19.7962L6.8742 19.7188L5.7234 19.64C4.47434 19.5551 3.29888 19.0795 2.40406 18.2967C1.50924 17.514 0.952467 16.4745 0.8318 15.3612L0.7758 14.83L0.6708 13.6925C0.564166 12.4639 0.507195 11.2323 0.5 10C0.5 8.77125 0.5728 7.48625 0.6708 6.3075L0.7758 5.17L0.8318 4.63875C0.95242 3.52569 1.509 2.48632 2.40353 1.70363C3.29806 0.920948 4.47319 0.445145 5.722 0.36L6.8714 0.28L8.1314 0.20375L9.4782 0.1325L10.8838 0.0725001C12.0885 0.025909 13.2942 0.00173698 14.5 0ZM14.5 2.5C13.345 2.5 12.1564 2.5275 11 2.57L9.6308 2.62875L8.3162 2.6975L7.0814 2.7725L5.9502 2.85125C5.35547 2.88842 4.79477 3.11266 4.36772 3.4841C3.94068 3.85555 3.67497 4.35015 3.6178 4.88C3.454 6.39125 3.3 8.2725 3.3 10C3.3 11.7275 3.454 13.6088 3.6178 15.12C3.7368 16.21 4.7056 17.0575 5.9502 17.1488L7.0814 17.2262L8.3162 17.3013L9.6308 17.3713L11 17.43C12.1564 17.4725 13.345 17.5 14.5 17.5C15.655 17.5 16.8436 17.4725 18 17.43L19.3692 17.3713L20.6838 17.3025L21.9186 17.2275L23.0498 17.1488C23.6445 17.1116 24.2052 16.8873 24.6323 16.5159C25.0593 16.1445 25.325 15.6499 25.3822 15.12C25.546 13.6088 25.7 11.7275 25.7 10C25.7 8.2725 25.546 6.39125 25.3822 4.88C25.325 4.35015 25.0593 3.85555 24.6323 3.4841C24.2052 3.11266 23.6445 2.88842 23.0498 2.85125L21.9186 2.77375L20.6838 2.69875L19.3692 2.62875L18 2.57C16.834 2.52532 15.6671 2.50198 14.5 2.5ZM11.7 6.96875C11.6999 6.84658 11.7332 6.72624 11.7971 6.61819C11.861 6.51015 11.9534 6.41767 12.0665 6.34879C12.1795 6.27992 12.3096 6.23674 12.4456 6.22301C12.5815 6.20928 12.7192 6.22541 12.8466 6.27L12.96 6.32L18.84 9.35C18.9571 9.41032 19.0561 9.49498 19.1287 9.5968C19.2014 9.69861 19.2454 9.81456 19.2571 9.93481C19.2687 10.0551 19.2477 10.176 19.1958 10.2875C19.144 10.399 19.0627 10.4976 18.959 10.575L18.84 10.65L12.96 13.6812C12.8415 13.7425 12.708 13.777 12.5712 13.7817C12.4344 13.7863 12.2984 13.7611 12.175 13.7081C12.0516 13.6551 11.9446 13.576 11.8632 13.4776C11.7819 13.3793 11.7288 13.2646 11.7084 13.1438L11.7 13.0312V6.96875Z"/>
</svg>
