<svg width="90" height="90" viewBox="0 0 90 90" fill="none" xmlns="http://www.w3.org/2000/svg">
<circle cx="45" cy="45" r="45" fill="black"/>
<path d="M20.3779 60V29.4545H33.6222C35.949 29.4545 37.9028 29.7678 39.4838 30.3942C41.0747 31.0206 42.2728 31.9055 43.0782 33.049C43.8936 34.1925 44.3012 35.5398 44.3012 37.0909C44.3012 38.2145 44.0526 39.2386 43.5555 40.1634C43.0683 41.0881 42.3822 41.8636 41.4972 42.4901C40.6123 43.1065 39.5782 43.5341 38.395 43.7727V44.071C39.7075 44.1207 40.9007 44.4538 41.9745 45.0703C43.0484 45.6768 43.9035 46.517 44.5399 47.5909C45.1762 48.6548 45.4944 49.9077 45.4944 51.3494C45.4944 53.0199 45.0569 54.5064 44.1819 55.8089C43.3169 57.1115 42.0839 58.1357 40.483 58.8814C38.8822 59.6271 36.9731 60 34.7558 60H20.3779ZM28.6705 53.3778H32.5484C33.9404 53.3778 34.9845 53.1193 35.6805 52.6023C36.3765 52.0753 36.7245 51.2997 36.7245 50.2756C36.7245 49.5597 36.5605 48.9531 36.2323 48.456C35.9042 47.9588 35.4369 47.581 34.8303 47.3224C34.2338 47.0639 33.5129 46.9347 32.6677 46.9347H28.6705V53.3778ZM28.6705 41.804H32.0711C32.797 41.804 33.4383 41.6896 33.9951 41.4609C34.5519 41.2322 34.9845 40.9041 35.2927 40.4766C35.6109 40.0391 35.77 39.5071 35.77 38.8807C35.77 37.9361 35.4319 37.2152 34.7558 36.718C34.0796 36.2109 33.2245 35.9574 32.1904 35.9574H28.6705V41.804ZM48.4326 60V29.4545H70.4468V36.1364H56.7252V41.3864H69.3133V48.0682H56.7252V53.3182H70.3872V60H48.4326Z" fill="white"/>
</svg>
