<svg width="501" height="31" viewBox="0 0 501 31"  xmlns="http://www.w3.org/2000/svg">
<path d="M13.3086 30H0.261719V1.21094H14.2461C17.7747 1.26302 20.2747 2.28516 21.7461 4.27734C22.6315 5.5013 23.0742 6.96615 23.0742 8.67188C23.0742 10.4297 22.6315 11.8424 21.7461 12.9102C21.2513 13.5091 20.5221 14.056 19.5586 14.5508C21.0299 15.0846 22.1367 15.931 22.8789 17.0898C23.6341 18.2487 24.0117 19.6549 24.0117 21.3086C24.0117 23.0143 23.582 24.5443 22.7227 25.8984C22.1758 26.7969 21.4922 27.5521 20.6719 28.1641C19.7474 28.8672 18.6536 29.349 17.3906 29.6094C16.1406 29.8698 14.7799 30 13.3086 30ZM13.1719 17.3242H6.00391V25H13.0742C14.3372 25 15.3203 24.8307 16.0234 24.4922C17.2995 23.8672 17.9375 22.6693 17.9375 20.8984C17.9375 19.401 17.319 18.3724 16.082 17.8125C15.3919 17.5 14.4219 17.3372 13.1719 17.3242ZM16.1602 11.8359C16.9414 11.3672 17.332 10.5273 17.332 9.31641C17.332 7.97526 16.8112 7.08984 15.7695 6.66016C14.8711 6.36068 13.7253 6.21094 12.332 6.21094H6.00391V12.5586H13.0742C14.3372 12.5586 15.3659 12.3177 16.1602 11.8359ZM28.6016 1.21094H34.5781V30H28.6016V1.21094ZM52.9375 30.8008C48.8229 30.8008 45.6784 29.681 43.5039 27.4414C40.5872 24.694 39.1289 20.7357 39.1289 15.5664C39.1289 10.293 40.5872 6.33464 43.5039 3.69141C45.6784 1.45182 48.8229 0.332031 52.9375 0.332031C57.0521 0.332031 60.1966 1.45182 62.3711 3.69141C65.2747 6.33464 66.7266 10.293 66.7266 15.5664C66.7266 20.7357 65.2747 24.694 62.3711 27.4414C60.1966 29.681 57.0521 30.8008 52.9375 30.8008ZM58.6211 23.0664C60.0143 21.3086 60.7109 18.8086 60.7109 15.5664C60.7109 12.3372 60.0078 9.84375 58.6016 8.08594C57.2083 6.3151 55.3203 5.42969 52.9375 5.42969C50.5547 5.42969 48.6536 6.30859 47.2344 8.06641C45.8151 9.82422 45.1055 12.3242 45.1055 15.5664C45.1055 18.8086 45.8151 21.3086 47.2344 23.0664C48.6536 24.8242 50.5547 25.7031 52.9375 25.7031C55.3203 25.7031 57.2148 24.8242 58.6211 23.0664ZM81.7852 25.8398C83.2044 25.8398 84.3568 25.6836 85.2422 25.3711C86.9219 24.7721 87.7617 23.6589 87.7617 22.0312C87.7617 21.0807 87.3451 20.3451 86.5117 19.8242C85.6784 19.3164 84.3698 18.8672 82.5859 18.4766L79.5391 17.793C76.5443 17.1159 74.474 16.3802 73.3281 15.5859C71.388 14.2578 70.418 12.181 70.418 9.35547C70.418 6.77734 71.3555 4.63542 73.2305 2.92969C75.1055 1.22396 77.8594 0.371094 81.4922 0.371094C84.526 0.371094 87.1107 1.17839 89.2461 2.79297C91.3945 4.39453 92.5208 6.72526 92.625 9.78516H86.8438C86.7396 8.05339 85.9844 6.82292 84.5781 6.09375C83.6406 5.61198 82.4753 5.37109 81.082 5.37109C79.5326 5.37109 78.2956 5.68359 77.3711 6.30859C76.4466 6.93359 75.9844 7.80599 75.9844 8.92578C75.9844 9.95443 76.4401 10.7227 77.3516 11.2305C77.9375 11.569 79.1875 11.9661 81.1016 12.4219L86.0625 13.6133C88.237 14.1341 89.8776 14.8307 90.9844 15.7031C92.7031 17.0573 93.5625 19.0169 93.5625 21.582C93.5625 24.2122 92.5534 26.3997 90.5352 28.1445C88.5299 29.8763 85.6914 30.7422 82.0195 30.7422C78.2695 30.7422 75.3203 29.8893 73.1719 28.1836C71.0234 26.4648 69.9492 24.1081 69.9492 21.1133H75.6914C75.8737 22.4284 76.2318 23.4115 76.7656 24.0625C77.7422 25.2474 79.4154 25.8398 81.7852 25.8398ZM110.242 19.6484H104.129V30H98.1523V1.21094H110.691C113.582 1.21094 115.887 1.95312 117.605 3.4375C119.324 4.92188 120.184 7.22005 120.184 10.332C120.184 13.7305 119.324 16.1328 117.605 17.5391C115.887 18.9453 113.432 19.6484 110.242 19.6484ZM113.055 13.6523C113.836 12.9622 114.227 11.8685 114.227 10.3711C114.227 8.8737 113.829 7.80599 113.035 7.16797C112.254 6.52995 111.154 6.21094 109.734 6.21094H104.129V14.6875H109.734C111.154 14.6875 112.26 14.3424 113.055 13.6523ZM141.863 30V17.1484H130.613V30H124.656V1.21094H130.613V12.1875H141.863V1.21094H147.84V30H141.863ZM173.641 17.4219H159.656V24.8242H175.594V30H153.777V1.21094H174.891V6.30859H159.656V12.4219H173.641V17.4219ZM192.508 18.7109H186.297V30H180.418V1.21094H194.539C196.557 1.25 198.107 1.4974 199.188 1.95312C200.281 2.40885 201.206 3.07943 201.961 3.96484C202.586 4.69401 203.081 5.5013 203.445 6.38672C203.81 7.27214 203.992 8.28125 203.992 9.41406C203.992 10.7812 203.647 12.1289 202.957 13.457C202.267 14.7721 201.128 15.7031 199.539 16.25C200.867 16.7839 201.805 17.5456 202.352 18.5352C202.911 19.5117 203.191 21.0091 203.191 23.0273V24.9609C203.191 26.276 203.243 27.168 203.348 27.6367C203.504 28.3789 203.868 28.9258 204.441 29.2773V30H197.82C197.638 29.362 197.508 28.8477 197.43 28.457C197.273 27.6497 197.189 26.8229 197.176 25.9766L197.137 23.3008C197.111 21.4648 196.772 20.2409 196.121 19.6289C195.483 19.0169 194.279 18.7109 192.508 18.7109ZM196.16 13.4766C197.358 12.9297 197.957 11.849 197.957 10.2344C197.957 8.48958 197.378 7.31771 196.219 6.71875C195.568 6.38021 194.591 6.21094 193.289 6.21094H186.297V13.9453H193.113C194.467 13.9453 195.483 13.7891 196.16 13.4766ZM229.227 17.4219H215.242V24.8242H231.18V30H209.363V1.21094H230.477V6.30859H215.242V12.4219H229.227V17.4219ZM267.039 17.4219H253.055V24.8242H268.992V30H247.176V1.21094H268.289V6.30859H253.055V12.4219H267.039V17.4219ZM296.824 30H289.52L284.051 20.1953L278.27 30H271.277L280.535 15.332L271.727 1.21094H278.914L284.051 10.5664L289.324 1.21094H296.277L287.469 15.0977L296.824 30ZM312.586 19.6484H306.473V30H300.496V1.21094H313.035C315.926 1.21094 318.23 1.95312 319.949 3.4375C321.668 4.92188 322.527 7.22005 322.527 10.332C322.527 13.7305 321.668 16.1328 319.949 17.5391C318.23 18.9453 315.776 19.6484 312.586 19.6484ZM315.398 13.6523C316.18 12.9622 316.57 11.8685 316.57 10.3711C316.57 8.8737 316.173 7.80599 315.379 7.16797C314.598 6.52995 313.497 6.21094 312.078 6.21094H306.473V14.6875H312.078C313.497 14.6875 314.604 14.3424 315.398 13.6523ZM347.078 17.4219H333.094V24.8242H349.031V30H327.215V1.21094H348.328V6.30859H333.094V12.4219H347.078V17.4219ZM365.945 18.7109H359.734V30H353.855V1.21094H367.977C369.995 1.25 371.544 1.4974 372.625 1.95312C373.719 2.40885 374.643 3.07943 375.398 3.96484C376.023 4.69401 376.518 5.5013 376.883 6.38672C377.247 7.27214 377.43 8.28125 377.43 9.41406C377.43 10.7812 377.085 12.1289 376.395 13.457C375.704 14.7721 374.565 15.7031 372.977 16.25C374.305 16.7839 375.242 17.5456 375.789 18.5352C376.349 19.5117 376.629 21.0091 376.629 23.0273V24.9609C376.629 26.276 376.681 27.168 376.785 27.6367C376.941 28.3789 377.306 28.9258 377.879 29.2773V30H371.258C371.076 29.362 370.945 28.8477 370.867 28.457C370.711 27.6497 370.626 26.8229 370.613 25.9766L370.574 23.3008C370.548 21.4648 370.21 20.2409 369.559 19.6289C368.921 19.0169 367.716 18.7109 365.945 18.7109ZM369.598 13.4766C370.796 12.9297 371.395 11.849 371.395 10.2344C371.395 8.48958 370.815 7.31771 369.656 6.71875C369.005 6.38021 368.029 6.21094 366.727 6.21094H359.734V13.9453H366.551C367.905 13.9453 368.921 13.7891 369.598 13.4766ZM382.156 1.21094H388.133V30H382.156V1.21094ZM413.797 17.4219H399.812V24.8242H415.75V30H393.934V1.21094H415.047V6.30859H399.812V12.4219H413.797V17.4219ZM443.719 30H437.703L425.945 9.55078V30H420.34V1.21094H426.648L438.113 21.3086V1.21094H443.719V30ZM469.656 27.8516C467.508 29.8177 464.76 30.8008 461.414 30.8008C457.273 30.8008 454.018 29.4727 451.648 26.8164C449.279 24.1471 448.094 20.4883 448.094 15.8398C448.094 10.8138 449.441 6.9401 452.137 4.21875C454.48 1.84896 457.462 0.664062 461.082 0.664062C465.926 0.664062 469.467 2.2526 471.707 5.42969C472.944 7.21354 473.608 9.00391 473.699 10.8008H467.684C467.293 9.42057 466.792 8.37891 466.18 7.67578C465.086 6.42578 463.465 5.80078 461.316 5.80078C459.129 5.80078 457.404 6.6862 456.141 8.45703C454.878 10.2148 454.246 12.7083 454.246 15.9375C454.246 19.1667 454.91 21.5885 456.238 23.2031C457.579 24.8047 459.279 25.6055 461.336 25.6055C463.445 25.6055 465.053 24.9154 466.16 23.5352C466.772 22.793 467.28 21.6797 467.684 20.1953H473.641C473.12 23.3333 471.792 25.8854 469.656 27.8516ZM498.289 17.4219H484.305V24.8242H500.242V30H478.426V1.21094H499.539V6.30859H484.305V12.4219H498.289V17.4219Z" />
</svg>
