
<svg width="250px" fill="white" viewBox="0 0 346 105" xmlns="http://www.w3.org/2000/svg" role="img" aria-labelledby="logo-sober" data-astro-cid-oa3gae7d=""> <title id="logo-sober">Logo Sober Studio</title> <path d="M300.972 18.2304C300.732 18.3208 300.431 18.361 300.071 18.361C299.641 18.361 299.281 18.2907 298.97 18.1601C298.66 18.0295 298.42 17.8287 298.25 17.5675C298.08 17.3063 297.99 16.9849 297.97 16.6133H294.778C294.778 17.6579 295.008 18.5117 295.448 19.1746C295.889 19.8375 296.509 20.3297 297.309 20.6511C298.11 20.9725 299.051 21.1332 300.121 21.1332C301.192 21.1332 302.062 20.9826 302.813 20.6913C303.563 20.4 304.134 19.9681 304.544 19.3956C304.944 18.8331 305.154 18.14 305.154 17.3164C305.154 16.8443 305.074 16.4024 304.924 16.0006C304.774 15.5988 304.544 15.2372 304.234 14.9158C303.924 14.5944 303.523 14.3131 303.033 14.0721C302.543 13.831 301.962 13.6402 301.272 13.4996L300.251 13.2786C299.961 13.2183 299.701 13.148 299.491 13.0676C299.281 12.9873 299.101 12.9069 298.96 12.8065C298.82 12.7161 298.72 12.6056 298.66 12.4851C298.6 12.3645 298.57 12.234 298.58 12.0833C298.58 11.9025 298.64 11.7418 298.74 11.6012C298.84 11.4606 299.011 11.3501 299.231 11.2597C299.451 11.1793 299.731 11.1391 300.081 11.1391C300.622 11.1391 301.032 11.2496 301.302 11.4806C301.572 11.7117 301.722 12.023 301.752 12.4248H304.864V14.0721H306.045V18.2806C306.045 18.9335 306.165 19.4759 306.425 19.9078C306.685 20.3397 307.076 20.6611 307.596 20.862C308.116 21.0629 308.757 21.1433 309.527 21.1031C309.907 21.083 310.238 21.0428 310.508 20.9725C310.788 20.9123 310.998 20.852 311.148 20.8118L310.668 18.4514C310.608 18.4715 310.508 18.4916 310.368 18.5117C310.228 18.5318 310.117 18.5518 310.017 18.5518C309.867 18.5518 309.757 18.5318 309.657 18.4916C309.567 18.4514 309.497 18.3811 309.447 18.3007C309.407 18.2103 309.377 18.1099 309.377 17.9793V14.0821H310.978V11.6514H309.377V9.42156H306.035V11.6514H304.874C304.784 11.1592 304.614 10.6972 304.354 10.2954C303.954 9.68271 303.393 9.21063 302.663 8.87917C301.932 8.54771 301.072 8.37695 300.071 8.37695C299.071 8.37695 298.22 8.54771 297.47 8.87917C296.709 9.21063 296.119 9.67267 295.698 10.2653C295.268 10.8579 295.058 11.551 295.068 12.3344C295.068 13.3087 295.378 14.0721 296.009 14.6346C296.639 15.197 297.5 15.5988 298.6 15.8298L299.831 16.101C300.291 16.2015 300.652 16.312 300.922 16.4224C301.192 16.5329 301.382 16.6635 301.502 16.8142C301.622 16.9548 301.682 17.1255 301.682 17.3164C301.682 17.5173 301.612 17.6981 301.492 17.8588C301.372 18.0195 301.182 18.14 300.942 18.2304H300.972Z" fill="var(--color-secondary)" data-astro-cid-oa3gae7d=""></path> <path d="M312.869 20.6611C313.349 20.9625 313.919 21.1131 314.57 21.1131C315.26 21.1131 315.86 20.9424 316.361 20.6109C316.861 20.2795 317.221 19.8174 317.421 19.2148H317.522V20.9926H320.694V11.6715H317.351V16.9146C317.351 17.226 317.301 17.4871 317.191 17.7081C317.081 17.9291 316.921 18.0998 316.721 18.2204C316.521 18.3409 316.281 18.4012 316.001 18.4012C315.58 18.4012 315.26 18.2706 315.02 18.0094C314.79 17.7483 314.67 17.3867 314.67 16.9247V11.6815H311.328V17.6278C311.328 18.3108 311.468 18.9134 311.738 19.4357C312.008 19.958 312.378 20.3799 312.869 20.6712V20.6611Z" fill="var(--color-secondary)" data-astro-cid-oa3gae7d=""></path> <path d="M322.905 20.5908C323.455 20.9424 324.066 21.1131 324.726 21.1131C325.167 21.1131 325.547 21.0428 325.887 20.9022C326.227 20.7616 326.517 20.5607 326.758 20.3096C326.998 20.0585 327.178 19.7773 327.308 19.4659H327.378V20.9926H330.69V8.55776H327.348V13.2886H327.298C327.178 12.9773 326.998 12.686 326.768 12.4148C326.537 12.1536 326.247 11.9326 325.897 11.782C325.547 11.6213 325.147 11.5409 324.686 11.5409C324.076 11.5409 323.496 11.7016 322.935 12.0331C322.385 12.3646 321.935 12.8768 321.584 13.5799C321.234 14.283 321.064 15.197 321.064 16.322C321.064 17.447 321.234 18.2907 321.564 19.0038C321.894 19.717 322.345 20.2393 322.895 20.5908H322.905ZM324.686 15.1368C324.806 14.8053 324.966 14.5542 325.187 14.3734C325.407 14.1926 325.667 14.1123 325.967 14.1123C326.267 14.1123 326.537 14.2027 326.758 14.3734C326.978 14.5542 327.148 14.8053 327.268 15.1368C327.388 15.4682 327.448 15.86 327.448 16.322C327.448 16.784 327.388 17.1657 327.268 17.4972C327.148 17.8287 326.978 18.0798 326.758 18.2606C326.537 18.4414 326.277 18.5318 325.967 18.5318C325.657 18.5318 325.397 18.4414 325.187 18.2706C324.966 18.0898 324.806 17.8387 324.686 17.5072C324.576 17.1758 324.516 16.784 324.516 16.322C324.516 15.86 324.576 15.4682 324.686 15.1368Z" fill="var(--color-secondary)" data-astro-cid-oa3gae7d=""></path> <path d="M332.992 10.6872C333.452 10.6872 333.832 10.5365 334.153 10.2352C334.473 9.93383 334.633 9.57223 334.633 9.15037C334.633 8.72851 334.473 8.36691 334.153 8.06559C333.832 7.76426 333.442 7.61359 332.992 7.61359C332.542 7.61359 332.151 7.76426 331.831 8.06559C331.511 8.36691 331.351 8.72851 331.351 9.15037C331.351 9.57223 331.511 9.93383 331.831 10.2352C332.151 10.5365 332.542 10.6872 332.992 10.6872Z" fill="var(--color-secondary)" data-astro-cid-oa3gae7d=""></path> <path d="M334.673 11.6614H331.331V20.9826H334.673V11.6614Z" fill="var(--color-secondary)" data-astro-cid-oa3gae7d=""></path> <path d="M337.225 20.5507C337.945 20.9524 338.806 21.1533 339.816 21.1533C340.827 21.1533 341.687 20.9524 342.408 20.5507C343.128 20.1489 343.679 19.5864 344.059 18.8632C344.439 18.14 344.629 17.3063 344.629 16.3421C344.629 15.3778 344.439 14.5442 344.059 13.821C343.679 13.0978 343.128 12.5353 342.408 12.1335C341.687 11.7318 340.827 11.5309 339.816 11.5309C338.806 11.5309 337.945 11.7318 337.225 12.1335C336.504 12.5353 335.954 13.0978 335.574 13.821C335.193 14.5442 335.003 15.3778 335.003 16.3421C335.003 17.3063 335.193 18.14 335.574 18.8632C335.954 19.5864 336.504 20.1489 337.225 20.5507ZM338.575 15.0665C338.685 14.7149 338.856 14.4437 339.066 14.2529C339.276 14.062 339.536 13.9716 339.836 13.9716C340.116 13.9716 340.367 14.062 340.567 14.2529C340.777 14.4437 340.927 14.7149 341.047 15.0665C341.157 15.418 341.217 15.8399 341.217 16.322C341.217 16.8041 341.157 17.226 341.047 17.5775C340.937 17.9291 340.777 18.2003 340.567 18.3911C340.357 18.582 340.116 18.6724 339.836 18.6724C339.536 18.6724 339.286 18.582 339.066 18.3911C338.856 18.2003 338.685 17.9291 338.575 17.5775C338.465 17.226 338.405 16.8041 338.405 16.322C338.405 15.8399 338.465 15.408 338.575 15.0665Z" fill="var(--color-secondary)" data-astro-cid-oa3gae7d=""></path> <path d="M342.688 25.4623C341.547 25.2815 340.396 25.1911 339.236 25.1911C335.273 25.1911 331.821 26.4065 328.879 28.8272C325.937 31.2479 323.786 35.0848 322.435 40.3179H321.665V26.1654H295.768V47.0275C294.037 42.4975 291.616 38.6103 288.494 35.3962C285.272 32.0815 281.399 29.5604 276.857 27.8127C272.314 26.065 267.241 25.1911 261.637 25.1911C253.972 25.1911 247.328 26.7882 241.684 29.9923C236.051 33.1965 231.688 37.6662 228.586 43.4316C227.976 44.5666 227.445 45.7418 226.965 46.9471C226.385 44.9885 225.694 43.1604 224.874 41.4931C222.092 35.8682 218.49 31.7501 214.057 29.1285C209.624 26.5069 204.971 25.2012 200.078 25.2012C196.406 25.2012 193.184 25.844 190.412 27.1196C187.64 28.3953 185.319 30.0928 183.458 32.2121C181.587 34.3315 180.166 36.6517 179.205 39.1728H178.815V1.34594H152.148V46.5554C151.718 45.5108 151.258 44.4863 150.727 43.5019C147.665 37.7264 143.263 33.2366 137.539 30.0224C131.805 26.8083 124.911 25.1911 116.856 25.1911C108.801 25.1911 101.907 26.7982 96.173 30.0224C90.4494 33.2366 86.0466 37.7264 82.9847 43.5019C80.9234 47.3891 79.5725 51.7182 78.9021 56.449C77.9715 54.9625 76.8808 53.5663 75.61 52.2405C74.7895 51.3867 73.889 50.5832 72.9084 49.7997C73.4787 49.4482 74.0291 49.0765 74.5394 48.6346C79.2824 44.5666 81.4237 38.5702 81.5438 32.3829H81.5538C81.5538 32.3025 81.5538 32.2222 81.5538 32.1418C81.5738 29.9321 81.3437 27.7022 80.8834 25.5326C80.8533 25.4121 80.8233 25.2815 80.8033 25.161C80.7233 24.8195 80.6432 24.488 80.5532 24.1465C79.7627 20.9625 78.5019 18.0295 76.7608 15.3377C73.5788 10.4762 69.0859 6.69956 63.2523 4.01772C57.4386 1.34594 50.5343 0 42.5393 0C34.5442 0 27.78 1.32585 21.7462 3.97755C15.7024 6.62925 10.9894 10.3256 7.58729 15.0564C4.18515 19.7873 2.5141 25.3117 2.54412 31.6095C2.5141 38.5199 4.49535 44.1146 8.48786 48.4236C7.83745 48.8656 7.21706 49.3377 6.65671 49.8499C0.342739 55.6957 -1.10817 65.2479 0.752996 74.1371C1.58352 78.7675 3.11448 82.7852 5.3659 86.1902C8.89812 91.5037 13.8612 95.4411 20.2452 97.9923C26.6393 100.544 34.134 101.819 42.7394 101.819C51.3448 101.819 58.2792 100.644 64.2629 98.2836C70.2267 95.9232 74.8196 92.488 78.0416 87.958C79.6026 85.7684 80.7833 83.3276 81.5938 80.6659C82.0241 81.7004 82.4844 82.725 83.0047 83.6993C86.0566 89.4647 90.4694 93.9645 96.193 97.1787C101.927 100.393 108.821 102 116.876 102C124.931 102 131.825 100.393 137.559 97.1787C143.283 93.9645 147.675 89.4647 150.747 83.6993C151.268 82.7149 151.728 81.6904 152.168 80.6458V100.644H178.635V88.4301H179.225C180.256 90.9513 181.727 93.2012 183.638 95.1899C185.549 97.1787 187.871 98.7456 190.592 99.9007C193.314 101.046 196.416 101.618 199.888 101.618C205.171 101.618 210.025 100.222 214.457 97.4499C218.89 94.6676 222.432 90.449 225.084 84.7941C225.744 83.3979 226.315 81.9013 226.805 80.3244C227.325 81.6804 227.906 82.9861 228.576 84.2316C231.658 89.9669 236.051 94.3663 241.774 97.4198C247.488 100.473 254.302 102 262.227 102C269.082 102 275.075 100.965 280.219 98.8762C285.352 96.797 289.485 93.8541 292.606 90.0573C293.847 88.5507 294.898 86.9335 295.768 85.2159V100.654H322.435V61.8629C322.435 59.0204 323.026 56.5394 324.216 54.4201C325.407 52.3007 327.038 50.6535 329.119 49.4682C331.201 48.2931 333.532 47.7004 336.144 47.7004C337.525 47.7004 339.186 47.8109 341.117 48.0419C343.058 48.273 344.679 48.6044 346 49.0564V26.2257C344.939 25.9043 343.829 25.6431 342.688 25.4724V25.4623ZM31.8626 25.7938C32.6931 24.6688 33.9839 23.7648 35.745 23.1019C37.5061 22.439 39.7675 22.1075 42.5293 22.1075C46.882 22.1075 50.124 23.0115 52.2554 24.8195C54.3967 26.6174 55.5875 29.1386 55.8476 32.3628C55.9077 36.5211 52.9158 38.751 48.2629 40.117L43.8701 39.1728C41.5186 38.6907 39.4973 38.1383 37.7863 37.5256C36.0852 36.9128 34.6843 36.2298 33.5936 35.4665C32.4929 34.7131 31.7025 33.8493 31.2021 32.8951C30.7018 31.9409 30.4817 30.8662 30.5517 29.6709C30.5817 28.2145 31.012 26.9288 31.8626 25.7938ZM1.00315 65.7501C1.25331 59.9143 3.20454 54.4201 7.33713 50.5932C7.89749 50.0709 8.52788 49.5988 9.1883 49.1569C9.46847 49.4381 9.75866 49.7093 10.0588 49.9705C14.5717 53.9781 20.5755 56.9513 28.0702 58.8898C27.3697 59.4322 26.7393 60.0349 26.219 60.748C25.2084 62.1341 24.658 63.8015 24.568 65.74H1.00315V65.7501ZM53.9364 75.6939C52.9358 76.9595 51.4649 77.9439 49.5437 78.657C47.6024 79.3702 45.2109 79.7217 42.3491 79.7217C38.927 79.7217 35.9951 79.1894 33.5236 78.1247C31.062 77.06 29.1508 75.493 27.8 73.4139C26.4792 71.3849 25.7287 68.8839 25.5486 65.9208C25.6086 64.1329 26.0989 62.6263 27.0295 61.3507C27.6499 60.5069 28.4404 59.8038 29.351 59.2112C29.8213 59.3217 30.2716 59.4422 30.7418 59.5527L40.608 61.6821C44.2703 62.4957 47.1822 63.3495 49.3435 64.2736C51.5049 65.1976 53.0659 66.2322 54.0065 67.3772C54.9571 68.5223 55.4574 69.8582 55.4874 71.3749C55.4574 72.992 54.9371 74.4284 53.9364 75.6839V75.6939ZM66.064 45.5309C62.1716 43.6225 57.4887 42.0857 52.0052 40.9205L50.154 40.5188C54.2666 38.992 56.9083 36.5613 56.8683 32.3829H80.5832C80.4631 38.299 78.4318 44.0041 73.919 47.8712C73.3486 48.3533 72.7282 48.7651 72.0678 49.1368C70.2967 47.821 68.3055 46.6157 66.064 45.5208V45.5309ZM126.722 73.444C125.822 76.2564 124.551 78.426 122.9 79.9427C121.259 81.4694 119.318 82.2227 117.056 82.2227C114.675 82.2227 112.623 81.4594 110.922 79.9427C109.221 78.426 107.91 76.2564 107.01 73.444C106.099 70.6316 105.659 67.2868 105.659 63.3997C105.659 59.5126 106.099 56.1377 107.01 53.3453C107.91 50.543 109.211 48.3935 110.922 46.8668C112.623 45.3501 114.675 44.5867 117.056 44.5867C119.438 44.5867 121.259 45.3501 122.9 46.8668C124.551 48.3935 125.822 50.543 126.722 53.3453C127.633 56.1377 128.073 59.4925 128.073 63.3997C128.073 67.3069 127.633 70.6316 126.722 73.444ZM200.238 72.8916C199.318 75.5232 198.007 77.5421 196.276 78.9483C194.565 80.3545 192.463 81.0576 190.022 81.0576C187.58 81.0576 185.469 80.3445 183.728 78.8981C181.967 77.4617 180.616 75.4227 179.665 72.7911C178.715 70.1595 178.235 67.0257 178.235 63.4097C178.235 59.7938 178.715 56.5696 179.665 53.9279C180.616 51.2963 181.967 49.2674 183.728 47.8712C185.479 46.465 187.58 45.7619 190.022 45.7619C192.463 45.7619 194.565 46.465 196.276 47.8712C198.007 49.2774 199.318 51.2963 200.238 53.9279C201.159 56.5696 201.609 59.7235 201.609 63.4097C201.609 67.096 201.159 70.26 200.238 72.8916ZM251.941 49.197C253.022 47.59 254.462 46.3143 256.274 45.3902C258.075 44.4662 260.056 44.0142 262.217 44.0142C264.379 44.0142 266.42 44.4662 268.171 45.3902C269.932 46.3143 271.333 47.59 272.374 49.2272C273.424 50.8644 273.955 52.7427 273.995 54.8721H250.23C250.3 52.7126 250.87 50.8142 251.941 49.197ZM274.195 76.5979C273.675 77.9941 272.864 79.1793 271.783 80.1637C270.683 81.148 269.372 81.9013 267.841 82.4236C266.31 82.9459 264.629 83.197 262.798 83.197C260.156 83.197 257.905 82.6647 256.033 81.6C254.162 80.5353 252.731 79.0688 251.741 77.1905C250.73 75.3223 250.24 73.1829 250.24 70.7923V69.6272H295.768V76.608H274.205L274.195 76.5979Z" fill="var(--color-secondary)" data-astro-cid-oa3gae7d=""></path> </svg>